<svg style="position: absolute; width: 0; height: 0; overflow: hidden;" version="1.1" xmlns="http://www.w3.org/2000/svg">
<defs>
<symbol id="i-instagram" viewBox="0 0 32 32">
<title>instagram</title>
<path d="M25.067 14.4c-0.889-4.267-4.622-7.289-8.889-7.289-4.978 0-9.067 4.089-9.067 9.067s4.089 9.067 9.067 9.067c4.8 0 8.533-3.733 8.889-8.356 0.533-0.178 0.711-0.711 0.711-1.244 0.178-0.533-0.178-1.067-0.711-1.244zM16.178 22.4c-3.378 0-6.222-2.844-6.222-6.222s2.844-6.222 6.222-6.222c3.378 0 6.222 2.844 6.222 6.222s-2.844 6.222-6.222 6.222z"></path>
<path d="M25.067 0h-18.133c-3.733 0-6.933 3.2-6.933 6.933v18.133c0 3.733 3.2 6.933 6.933 6.933h18.133c3.911 0 6.933-3.2 6.933-6.933v-18.133c0-3.733-3.2-6.933-6.933-6.933zM29.156 25.244c0 2.133-1.778 3.911-3.911 3.911h-18.489c-2.133 0-3.911-1.778-3.911-3.911v-18.489c0-2.133 1.778-3.911 3.911-3.911h18.667c2.133 0 3.911 1.778 3.911 3.911v18.489z"></path>
</symbol>
<symbol id="i-quote" viewBox="0 0 49 32">
<title>quote</title>
<path d="M21.415 0c-11.815 0-21.415 9.6-21.415 21.415 0 0 0 0 0 0.246 0 0 0 0.246 0 0.492 0 5.415 4.431 9.846 9.846 9.846s9.846-4.431 9.846-9.846c0-5.415-4.431-9.846-9.846-9.846-1.969 0-3.692 0.492-5.169 1.477 2.954-6.4 9.354-10.831 16.738-10.831 0.738 0 1.477-0.492 1.477-1.477 0-0.738-0.738-1.477-1.477-1.477z"></path>
<path d="M47.262 0c-11.815 0-21.415 9.6-21.415 21.415 0 0 0 0 0 0.246s0 0.492 0 0.492c0 5.415 4.431 9.846 9.846 9.846s9.846-4.431 9.846-9.846c0-5.415-4.431-9.846-9.846-9.846-1.969 0-3.692 0.492-5.169 1.477 2.954-6.154 9.108-10.585 16.492-10.585 0.738 0 1.477-0.738 1.477-1.477 0.246-0.985-0.492-1.723-1.231-1.723z"></path>
</symbol>
<symbol id="i-fb" viewBox="0 0 32 32">
<title>fb</title>
<path d="M17.723 32h-6.892v-15.015h-3.446v-5.908h3.446v-3.446c0-4.677 1.969-7.631 7.385-7.631h4.677v5.908h-2.954c-2.215 0-2.215 0.738-2.215 2.215v2.954h5.169l-0.492 5.908h-4.677v15.015z"></path>
</symbol>
<symbol id="i-twitter" viewBox="0 0 39 32">
<title>twitter</title>
<path d="M39.385 3.692c-1.477 0.738-2.954 0.985-4.677 1.231 1.723-0.985 2.954-2.708 3.446-4.431-1.477 0.985-3.2 1.477-5.169 1.969-1.477-1.477-3.692-2.462-5.908-2.462-4.185 0-7.877 3.692-7.877 8.123 0 0.738 0 1.231 0.246 1.723-6.646-0.246-12.8-3.446-16.738-8.369-0.738 1.231-0.985 2.462-0.985 4.185 0 2.708 1.477 5.169 3.692 6.646-1.231 0-2.462-0.492-3.692-0.985v0c0 3.938 2.708 7.138 6.4 7.877-0.738 0.246-1.477 0.246-2.215 0.246-0.492 0-0.985 0-1.477-0.246 0.985 3.2 3.938 5.662 7.631 5.662-2.708 2.215-6.154 3.446-10.092 3.446-0.738 0-1.231 0-1.969 0 3.692 2.462 7.877 3.692 12.308 3.692 14.769 0 22.892-12.308 22.892-22.892 0-0.246 0-0.738 0-0.985 1.723-1.231 3.2-2.708 4.185-4.431v0z"></path>
</symbol>
<symbol id="i-plus" viewBox="0 0 32 32">
<title>plus</title>
<path d="M32 32h-32v-32h32v32zM1.6 30.4h28.8v-28.8h-28.8v28.8z"></path>
<path d="M16 24.8c-0.48 0-0.8-0.32-0.8-0.8v-16c0-0.48 0.32-0.8 0.8-0.8s0.8 0.32 0.8 0.8v16c0 0.48-0.32 0.8-0.8 0.8z"></path>
<path d="M24 16.8h-16c-0.48 0-0.8-0.32-0.8-0.8s0.32-0.8 0.8-0.8h16c0.48 0 0.8 0.32 0.8 0.8s-0.32 0.8-0.8 0.8z"></path>
</symbol>
<symbol id="i-minus" viewBox="0 0 32 32">
<title>minus</title>
<path d="M32 32h-32v-32h32v32zM1.6 30.4h28.8v-28.8h-28.8v28.8z"></path>
<path d="M24 16.8h-16c-0.48 0-0.8-0.32-0.8-0.8s0.32-0.8 0.8-0.8h16c0.48 0 0.8 0.32 0.8 0.8s-0.32 0.8-0.8 0.8z"></path>
</symbol>
<symbol id="i-search" viewBox="0 0 32 32">
<title>search</title>
<path d="M31.015 29.538l-7.877-8.123c1.969-2.215 3.2-5.169 3.2-8.369 0-7.385-5.908-13.046-12.8-13.046-7.138 0-13.046 5.662-13.046 12.8s5.662 12.8 12.8 12.8c2.954 0 5.415-0.985 7.631-2.462l8.123 8.369c0.246 0.246 0.738 0.492 0.985 0.492s0.738-0.246 0.985-0.492c0.492-0.492 0.492-1.231 0-1.969zM3.446 12.8c0-5.662 4.431-10.092 10.092-10.092s10.092 4.677 10.092 10.092c0 5.662-4.431 10.092-10.092 10.092s-10.092-4.431-10.092-10.092z"></path>
</symbol>
<symbol id="i-menu" viewBox="0 0 32 32">
<title>menu</title>
<path d="M0 2.708h32v2.954h-32v-2.954z"></path>
<path d="M0 14.523h32v2.954h-32v-2.954z"></path>
<path d="M0 26.585h32v2.954h-32v-2.954z"></path>
</symbol>
<symbol id="i-arrow" viewBox="0 0 59 32">
<title>arrow</title>
<path d="M44.554 30.523c-0.246 0-0.738-0.246-0.985-0.492-0.492-0.492-0.492-1.231 0-1.969l10.831-10.831-53.169-0.246c-0.246 0-0.738-0.246-0.985-0.492s-0.246-0.492-0.246-0.738c0-0.738 0.492-1.231 1.231-1.231l53.169 0.246-10.831-10.831c-0.492-0.492-0.492-1.231 0-1.969 0.492-0.492 1.231-0.492 1.969 0l13.046 13.046c0.246 0.246 0.492 0.738 0.492 0.985s-0.246 0.738-0.492 0.985l-13.046 13.046c-0.246 0.246-0.738 0.492-0.985 0.492z"></path>
</symbol>
<symbol id="i-cloud" viewBox="0 0 32 32">
<title>cloud</title>
<path d="M23.138 12.062c-0.985 0-1.723 0.738-1.723 1.723s0.738 1.723 1.723 1.723 1.723-0.738 1.723-1.723c0-0.738-0.738-1.723-1.723-1.723zM16 12.062c-0.985 0-1.723 0.738-1.723 1.723s0.738 1.723 1.723 1.723c0.985 0 1.723-0.738 1.723-1.723 0-0.738-0.738-1.723-1.723-1.723zM8.862 12.062c-0.985 0-1.723 0.738-1.723 1.723s0.738 1.723 1.723 1.723c0.985 0 1.723-0.738 1.723-1.723 0.246-0.738-0.738-1.723-1.723-1.723zM16 26.831c-0.985 0-1.969 0-2.954-0.246-0.492 0.738-1.477 1.477-2.462 2.462-3.446 2.462-8.862 1.477-8.862 1.477s2.708-2.954 3.446-6.892c-2.954-2.462-5.169-5.908-5.169-9.6 0-7.138 7.138-12.8 16-12.8s16 5.662 16 12.8c0 7.138-7.138 12.8-16 12.8z"></path>
</symbol>
<symbol id="i-clock" viewBox="0 0 32 32">
<title>clock</title>
<path d="M20.185 21.169l-4.923-3.2c-0.738-0.492-1.231-1.231-0.985-1.969v-5.415c0-0.985 0.738-1.723 1.723-1.723s1.723 0.738 1.723 1.723v4.185l4.431 2.708c0.985 0.492 1.231 1.723 0.738 2.708s-1.723 1.477-2.708 0.985zM16 3.446c-6.892 0-12.554 5.662-12.554 12.554s5.662 12.554 12.554 12.554 12.554-5.662 12.554-12.554-5.662-12.554-12.554-12.554zM16 32c-8.862 0-16-7.138-16-16s7.138-16 16-16c8.862 0 16 7.138 16 16s-7.138 16-16 16z"></path>
</symbol>
</defs>
</svg>
