<svg id="Layer_1" xmlns="http://www.w3.org/2000/svg" viewBox="0 0 110 91"><style>.st0{fill:#FFFFFF;}</style><title>general / earth logo</title><g id="Symbols"><g id="general-_x2F_-earth-logo"><g id="SE_Logo"><path id="Fill-1" class="st0" d="M.5 79c.4.4 1 .7 1.6.7.8 0 1.2-.4 1.2-.9 0-.6-.4-.8-1-1l-.8-.4C1 77.2.3 76.8.3 75.9s.8-1.5 1.8-1.5c.7 0 1.3.3 1.7.7l-.4.5c-.3-.4-.7-.6-1.2-.6-.6 0-1.1.3-1.1.8 0 .6.5.8 1 1l.8.4c.6.3 1.1.6 1.1 1.5s-.8 1.6-2 1.6c-.8 0-1.5-.3-2-.8l.5-.5"/><path id="Fill-2" class="st0" d="M7.6 74.4c.7 0 1.2.3 1.6.7l-.4.5c-.3-.4-.7-.6-1.2-.6-1.1 0-1.8.9-1.8 2.3s.7 2.4 1.8 2.4c.5 0 .9-.2 1.3-.6l.4.4c-.4.5-1 .8-1.7.8-1.4 0-2.5-1.1-2.5-3 0-1.8 1-2.9 2.5-2.9"/><path id="Fill-3" class="st0" d="M10.6 74.5h.7v2.4H14v-2.4h.7v5.7H14v-2.7h-2.7v2.7h-.7v-5.7"/><path id="Fill-4" class="st0" d="M20.4 77.3c0-1.4-.7-2.3-1.7-2.3s-1.7.9-1.7 2.3.7 2.4 1.7 2.4 1.7-.9 1.7-2.4zm-4.2 0c0-1.8 1-2.9 2.5-2.9 1.4 0 2.5 1.1 2.5 2.9s-1 3-2.5 3-2.5-1.1-2.5-3z"/><path id="Fill-5" class="st0" d="M26.4 77.3c0-1.4-.7-2.3-1.7-2.3s-1.7.9-1.7 2.3.7 2.4 1.7 2.4 1.7-.9 1.7-2.4zm-4.1 0c0-1.8 1-2.9 2.5-2.9 1.4 0 2.5 1.1 2.5 2.9s-1 3-2.5 3-2.5-1.1-2.5-3z"/><path id="Fill-6" class="st0" d="M28.6 74.5h.8v5.1h2.5v.6h-3.3v-5.7"/><path id="Fill-7" class="st0" d="M39 77.3c0-1.4-.7-2.3-1.7-2.3s-1.7.9-1.7 2.3.7 2.4 1.7 2.4 1.7-.9 1.7-2.4zm-4.2 0c0-1.8 1-2.9 2.5-2.9 1.4 0 2.5 1.1 2.5 2.9s-1 3-2.5 3-2.5-1.1-2.5-3z"/><path id="Fill-8" class="st0" d="M41.2 74.5h3.3v.6h-2.6V77h2.2v.7h-2.2v2.5h-.7v-5.7"/><path id="Fill-9" class="st0" d="M47.8 74.5h3.3v.6h-2.6v1.8h2.2v.6h-2.2v2.1h2.7v.6h-3.4v-5.7"/><path id="Fill-10" class="st0" d="M55.1 77.9l-.3-.9c-.2-.6-.4-1.3-.6-1.9-.2.7-.4 1.3-.6 1.9l-.3.9h1.8zm.1.6h-2.1l-.6 1.8h-.7l1.9-5.7h.8l1.9 5.7h-.8l-.4-1.8z"/><path id="Fill-11" class="st0" d="M58.3 77.2h1c.9 0 1.4-.4 1.4-1.1 0-.8-.5-1-1.4-1h-1v2.1zm2.5 3l-1.4-2.4h-1v2.4h-.7v-5.7h1.8c1.2 0 2 .4 2 1.6 0 .9-.5 1.4-1.3 1.6l1.5 2.5h-.9z"/><path id="Fill-12" class="st0" d="M64.1 75.1h-1.7v-.6h4.2v.6h-1.8v5.1h-.7v-5.1"/><path id="Fill-13" class="st0" d="M67.8 74.5h.8v2.4h2.6v-2.4h.8v5.7h-.8v-2.7h-2.6v2.7h-.8v-5.7"/><path id="Fill-14" class="st0" d="M73.4 81.3c.5-.2.8-.6.8-1.1h-.1c-.3 0-.5-.2-.5-.5s.2-.5.5-.5c.4 0 .6.3.6.8 0 .8-.4 1.3-1.1 1.6l-.2-.3"/><path id="Fill-15" class="st0" d="M78.2 74.5h3.4v.6H79v1.8h2.2v.6H79v2.1h2.6v.6h-3.4v-5.7"/><path id="Fill-16" class="st0" d="M83.1 74.5h.8l2.1 3.6.6 1.2c0-.6-.1-1.2-.1-1.8v-3h.7v5.7h-.8l-2.1-3.6-.6-1.2c0 .6.1 1.2.1 1.8v3h-.7v-5.7"/><path id="Fill-17" class="st0" d="M89 74.5h3.3v.6h-2.6v1.8h2.2v.6h-2.2v2.1h2.7v.6H89v-5.7"/><path id="Fill-18" class="st0" d="M94.6 77.2h1c.9 0 1.4-.4 1.4-1.1 0-.8-.5-1-1.4-1h-1v2.1zm2.4 3l-1.4-2.4h-1v2.4h-.7v-5.7h1.8c1.2 0 2 .4 2 1.6 0 .9-.5 1.4-1.3 1.6l1.5 2.5H97z"/><path id="Fill-19" class="st0" d="M101.5 74.4c.8 0 1.3.4 1.6.7l-.4.5c-.3-.3-.6-.5-1.2-.5-1.2 0-1.9.9-1.9 2.3s.7 2.4 1.9 2.4c.4 0 .8-.1 1-.3V78h-1.2v-.6h1.9v2.4c-.4.4-1 .7-1.8.7-1.5 0-2.6-1.1-2.6-3 0-2 1.1-3.1 2.7-3.1"/><path id="Fill-20" class="st0" d="M105.7 78l-1.7-3.5h.8l.7 1.6c.2.4.4.8.6 1.3.2-.4.4-.8.6-1.3l.7-1.6h.8l-1.7 3.5v2.2h-.7V78"/><path id="Fill-21" class="st0" d="M1.6 87.2c.5-.4 1-.7 1-1.2 0-.3-.2-.6-.5-.6-.4 0-.7.4-.7.8 0 .3.1.7.2 1zm.2 3.1c.4 0 .8-.2 1.1-.5-.6-.5-1.1-1.1-1.5-1.7-.4.3-.7.7-.7 1.1 0 .6.5 1.1 1.1 1.1zm2.9.5c-.4-.1-.9-.3-1.3-.7-.4.4-1 .7-1.7.7-1 0-1.8-.7-1.8-1.6 0-.8.5-1.3 1.1-1.7-.2-.5-.4-.9-.4-1.3 0-.8.5-1.4 1.3-1.4.7 0 1.1.5 1.1 1.1 0 .8-.7 1.2-1.3 1.7.4.6.9 1.2 1.5 1.6.4-.5.6-1 .8-1.7h.7c-.2.8-.6 1.5-1 2.1.4.3.8.5 1.1.6l-.1.6z"/><path id="Fill-22" class="st0" d="M7.6 85h3.3v.6H8.3v1.8h2.2v.6H8.3v2.1H11v.6H7.6V85"/><path id="Fill-23" class="st0" d="M12.2 85h.8l2.1 3.6.6 1.2c0-.6-.1-1.2-.1-1.8v-3h.7v5.7h-.8l-2.1-3.6-.6-1.2c0 .6.1 1.2.1 1.8v3h-.7V85"/><path id="Fill-24" class="st0" d="M17 85h.8l.9 3.1c.2.7.3 1.2.6 1.9.2-.7.4-1.2.6-1.9l.9-3.1h.7l-1.8 5.7h-.9L17 85"/><path id="Fill-25" class="st0" d="M22.3 90.7h.7V85h-.7z"/><path id="Fill-26" class="st0" d="M25.3 87.7h1c.9 0 1.4-.4 1.4-1.1 0-.8-.5-1-1.4-1h-1v2.1zm2.4 3l-1.4-2.4h-1v2.4h-.7V85h1.8c1.2 0 2 .4 2 1.6 0 .9-.5 1.4-1.3 1.6l1.5 2.5h-.9z"/><path id="Fill-27" class="st0" d="M33.4 87.8c0-1.4-.7-2.3-1.7-2.3s-1.7.9-1.7 2.3.7 2.4 1.7 2.4 1.7-.9 1.7-2.4zm-4.1 0c0-1.8 1-2.9 2.5-2.9 1.4 0 2.5 1.1 2.5 2.9s-1 3-2.5 3-2.5-1.1-2.5-3z"/><path id="Fill-28" class="st0" d="M35.4 85h.8l2.1 3.6.6 1.2c0-.6-.1-1.2-.1-1.8v-3h.7v5.7h-.8l-2.1-3.6-.6-1.2c0 .6.1 1.2.1 1.8v3h-.7V85"/><path id="Fill-29" class="st0" d="M41 85h.9l1.1 3.1.4 1.2.4-1.2 1.1-3.1h.9v5.7h-.7v-3.2c0-.5.1-1.2.1-1.7l-.5 1.3-1.1 3h-.4l-1.1-3-.5-1.3c0 .5.1 1.2.1 1.7v3.2H41V85"/><path id="Fill-30" class="st0" d="M47.3 85h3.3v.6h-2.5v1.8h2.1v.6h-2.1v2.1h2.6v.6h-3.4V85"/><path id="Fill-31" class="st0" d="M51.9 85h.8l2.1 3.6.6 1.2c0-.6-.1-1.2-.1-1.8v-3h.7v5.7h-.8l-2.1-3.6-.6-1.2c0 .6.1 1.2.1 1.8v3h-.7V85"/><path id="Fill-32" class="st0" d="M58.7 85.6H57V85h4.2v.6h-1.7v5.1h-.8v-5.1"/><path id="Fill-33" class="st0" d="M64.6 88.4l-.3-.9c-.2-.6-.4-1.3-.6-1.9-.2.7-.4 1.3-.6 1.9l-.3.9h1.8zm.2.6h-2.1l-.6 1.8h-.7l1.9-5.7h.8l1.9 5.7h-.8l-.4-1.8z"/><path id="Fill-34" class="st0" d="M66.9 85h.7v5.1h2.6v.6h-3.3V85"/><path id="Fill-35" class="st0" d="M72.9 89.5c.4.4 1 .7 1.6.7.8 0 1.2-.4 1.2-.9 0-.6-.4-.8-1-1l-.8-.4c-.5-.2-1.2-.6-1.2-1.5s.8-1.5 1.8-1.5c.7 0 1.3.3 1.7.7l-.4.5c-.4-.3-.8-.5-1.3-.5-.6 0-1.1.3-1.1.8 0 .6.5.8 1 1l.8.4c.7.3 1.2.7 1.2 1.5 0 .9-.8 1.6-2 1.6-.8 0-1.5-.3-2-.8l.5-.6"/><path id="Fill-36" class="st0" d="M79.8 84.9c.7 0 1.2.3 1.6.7l-.4.5c-.3-.3-.7-.5-1.1-.5-1.1 0-1.8.9-1.8 2.3s.7 2.4 1.8 2.4c.5 0 .9-.2 1.3-.6l.4.4c-.4.5-1 .8-1.7.8-1.4 0-2.5-1.1-2.5-3-.2-1.9.9-3 2.4-3"/><path id="Fill-37" class="st0" d="M82.5 90.7h.7V85h-.7z"/><path id="Fill-38" class="st0" d="M84.8 85h3.3v.6h-2.6v1.8h2.2v.6h-2.2v2.1h2.7v.6h-3.4V85"/><path id="Fill-39" class="st0" d="M89.3 85h.8l2.1 3.6.6 1.2c0-.6-.1-1.2-.1-1.8v-3h.7v5.7h-.8l-2.1-3.6-.5-1.2c0 .6.1 1.2.1 1.8v3h-.7l-.1-5.7"/><path id="Fill-40" class="st0" d="M97.2 84.9c.7 0 1.2.3 1.6.7l-.4.5c-.3-.3-.7-.5-1.1-.5-1.1 0-1.8.9-1.8 2.3s.7 2.4 1.8 2.4c.5 0 .9-.2 1.3-.6l.4.4c-.4.5-1 .8-1.7.8-1.4 0-2.5-1.1-2.5-3-.2-1.9.9-3 2.4-3"/><path id="Fill-41" class="st0" d="M99.9 85h3.3v.6h-2.5v1.8h2.1v.6h-2.1v2.1h2.6v.6h-3.4V85"/><path id="Fill-42" class="st0" d="M104.5 89.5c.4.4 1 .7 1.6.7.8 0 1.2-.4 1.2-.9 0-.6-.4-.8-1-1l-.8-.4c-.5-.2-1.2-.6-1.2-1.5s.8-1.5 1.8-1.5c.7 0 1.3.3 1.7.7l-.4.5c-.4-.3-.8-.5-1.3-.5-.6 0-1.1.3-1.1.8 0 .6.5.8 1 1l.8.4c.7.3 1.2.7 1.2 1.5 0 .9-.8 1.6-2 1.6-.8 0-1.5-.3-2-.8l.5-.6"/><path id="Fill-43" class="st0" d="M0 35.4h15v3.8H4.5v6.3h8.9v3.8H4.5v7.3h10.9v3.7H0V35.4"/><path id="Fill-44" class="st0" d="M32.9 50.1l-.9-3c-.8-2.6-1.5-5.5-2.3-8.2h-.2c-.7 2.8-1.4 5.6-2.2 8.2l-.9 3h6.5zm1 3.5h-8.4l-1.9 6.7H19l8.2-24.9h5.2l8.1 24.9h-4.7l-1.9-6.7z"/><path id="Fill-45" class="st0" d="M49.8 47.1h3.5c3.4 0 5.3-1.4 5.3-4.3S56.8 39 53.3 39h-3.5v8.1zM59 60.3l-5.4-9.7h-3.8v9.7h-4.4V35.4h8.4c5.2 0 9.2 1.8 9.2 7.4 0 3.8-2 6.1-5 7.1l6 10.4h-5z"/><path id="Fill-46" class="st0" d="M73 39.2h-7.2v-3.8h18.8v3.8h-7.2v21.1H73V39.2"/><path id="Fill-47" class="st0" d="M89.7 35.4h4.4v10.1h10.1V35.4h4.4v24.9h-4.4v-11H94.1v11h-4.4V35.4"/><path id="Fill-48" class="st0" d="M32.3 15.3c-1.9.6-2.6.9-3.2 1.2-.8.4-1.3 1.3-1.3 2.3 0 .8.3 2.1 2.1 2.1.6 0 1.5-.1 2.3-.7l.1-4.9zm-3.5 7.6c-3.9 0-4.2-3-4.2-3.9 0-1.1.3-2.9 2.8-3.9 2.6-.9 3.1-1.1 4.9-1.6V13c0-.9 0-1.1-.2-1.6-.3-1-1.3-1.6-2.6-1.6-1.9 0-2.7 1.5-2.7 1.5l-.2.3-.7-.4.1-.2c.3-1.1 1.8-3 4.8-3 2 0 3.3.6 4.1 1.8.6 1 .7 2.3.7 3.7 0 1.2 0 2.6-.1 3.7V19c0 1 .2 1.8 1 1.8.2 0 .3 0 .5-.1l.2-.2.5.5-.2.2c-.8.9-1.5 1.6-2.8 1.6-1.1 0-1.9-.5-2.2-1.5-.7.7-1.8 1.6-3.7 1.6z"/><path id="Fill-49" class="st0" d="M5.1 22.8c-1.9 0-3.3-.2-4.7-.7L.2 22v-1c0-1.4 0-1.9-.1-2.4v-.7h.8v.3c0 .6.3 1.3.6 1.7.6.7 2 1.1 3.3 1.1 2.7 0 4-1 4-3.3 0-1.9-1.2-2.7-2.8-3.8l-.3-.2L4 12.6C1.6 11 .4 9.8.4 7.2c0-1.2.5-5.3 6.5-5.3 2.5 0 4.4.3 4.5.3h.3v4.2H11v-.3c-.1-.8-.3-1.3-.7-1.7-.7-.4-1.9-.6-3.3-.6-3.2 0-3.6 1.6-3.6 2.9 0 1.7.9 2.3 2.8 3.5l2.2 1.4c1.9 1.2 3.6 2.4 3.6 5.5 0 5.2-4.9 5.7-6.9 5.7"/><path id="Fill-50" class="st0" d="M19.3 22.9c-2.2 0-3.5-.8-4-2.6-.2-.7-.2-2.1-.2-2.9v-7.3h-1.9v-.5l.2-.1c.9-.4 1.2-.6 1.6-.9 1.4-1.1 2.3-2.9 2.4-2.9l.3-.5h.6v3.2h4.9v1.8h-4.9v7.5c0 2.2.4 3.5 2.6 3.5 1 0 1.8-.4 1.8-.4l.3-.2.2.6-.1.1c-.1.2-1.2 1.6-3.8 1.6"/><path id="Fill-51" class="st0" d="M38.9 22.7V22h.3c.2 0 .9-.1 1.3-.6s.5-1.7.5-4.2v-4.1c0-1.8 0-2.5-.3-2.9s-.9-.5-1.3-.5H39v-.8h.5c.4 0 1.5-.1 2.6-.3.8-.1 1.3-.4 1.5-.5l.2-.1.2.3v1.1c.8-.5 2.2-1.4 4.2-1.4 2.6 0 4.3 1.2 4.8 3.4.1.5.2 1.9.2 2.6v4.2c0 2.4.1 3 .5 3.4.2.2.7.4 1.1.4h.3v.7h-.7c-1-.1-1.9-.1-2.9-.1-1.1 0-2 0-3.3.1h-.3V22h.3c.6-.1.9-.2 1.2-.5.5-.5.5-1.6.5-2.5v-.5V16c0-1.1 0-2.2-.1-3.3-.2-1.9-1.2-2.7-3.1-2.7-1.3 0-2.1.3-2.7.6v7.5c0 2.4.1 3 .5 3.4.2.2.7.4 1.1.4h.3v.7h-.8c-1-.1-1.9-.1-2.8-.1-1 0-2 0-3.3.1l-.1.1"/><path id="Fill-52" class="st0" d="M56.8 22.7V22h.3c.2 0 .9-.1 1.3-.6s.5-1.7.5-4.1v-7.1H57v-.8l.2-.1c.8-.3 1.3-.6 1.7-.9 0-1.3 0-2.9.2-3.8.6-3 2.5-4.5 5.8-4.5 1.4 0 2.7.5 3.5 1.1l.1.1v.3l-1.4 2h-.3l-.1-.2c-.5-1.2-1.3-1.7-2.4-1.7-.5 0-1.1.1-1.4.5-.8.7-.9 1.6-.9 3.4v2.8h3.2v1.8H62v8c0 1.9.1 2.8.3 3.2.4.6 1.6.7 2 .7h.3v.8h-.3c-1.6-.1-2.8-.1-3.6-.1-1.1 0-2.3 0-3.6.1l-.3-.2"/><path id="Fill-53" class="st0" d="M73.5 9.6c-.8 0-1.5.2-2 .7-1.2 1-1.7 2.7-1.7 5.2 0 1 .2 5.8 3.7 5.8.8 0 1.5-.2 2-.6 1.2-1 1.7-2.7 1.7-5.2 0-1-.2-5.9-3.7-5.9M73.3 23c-4.4 0-7-2.7-7-7.3 0-3.5 1.9-7.7 7.3-7.7 4.4 0 7 2.7 7 7.3 0 3.5-1.9 7.7-7.3 7.7"/><path id="Fill-54" class="st0" d="M82 22.7V22h.3c.2 0 .8-.1 1.3-.6.4-.5.5-1.7.5-4.1v-4.1c0-1.8 0-2.5-.3-2.9s-.9-.5-1.3-.5h-.4v-.9h.5c.4 0 1.5-.1 2.6-.3.7-.1 1.3-.3 1.5-.4l.2-.1.3.1v1.2c.7-.6 1.8-1.3 3.3-1.3 1 0 1.8.3 2.4.8l.1.2v.5l-1.2 2.2h-.6l-.1-.1c-.3-.5-1-1.2-2.3-1.2-.6 0-1.1.1-1.6.5v7.2c0 1.9.1 2.8.3 3.2.4.6 1.6.6 2 .6h.3v.8h-.3c-1.6-.1-2.8-.1-3.6-.1-1.1 0-2.3 0-3.6.1l-.3-.1"/><path id="Fill-55" class="st0" d="M101.4 9.6c-2.8 0-4.2 1.9-4.2 5.8 0 1.6.5 5.3 4.6 5.3h.1c.5 0 1.5-.1 2.3-.6v-9.6c-.2-.2-1.1-.9-2.8-.9m3.3 13.1l-.4-.1v-1.2c-.7.5-2.1 1.3-4 1.3-3.9 0-6.5-2.7-6.5-7 0-1.4.3-2.7.8-3.9 1.2-2.6 3.7-4.1 6.9-4.1 1.2 0 2.2.1 2.8.3V5c0-1.8 0-2.7-.3-3.1s-.9-.5-1.3-.5h-.4l.1-.6h.3c.1 0 1.7-.1 3.1-.4.6-.1 1.1-.2 1.4-.3l.1-.1.3.1v.1c-.1 1.2-.1 3.7-.1 5.6v11.7c0 1.7 0 2.8.3 3.2.3.4.9.5 1.3.5h.4v.8h-.3c-.3 0-1.6.1-2.8.3-.7.1-1.2.2-1.5.3l-.2.1"/></g></g></g></svg>