<?xml version="1.0" encoding="utf-8"?>
<!-- Generator: Adobe Illustrator 21.1.0, SVG Export Plug-In . SVG Version: 6.00 Build 0)  -->
<svg version="1.1" id="Layer_1" xmlns="http://www.w3.org/2000/svg" xmlns:xlink="http://www.w3.org/1999/xlink" x="0px" y="0px"
	 viewBox="0 0 110 24.4" style="enable-background:new 0 0 110 24.4;" xml:space="preserve">
<style type="text/css">
	.st0{fill:#FFFFFF;}
</style>

<filter id="drop-shadow">
  <feGaussianBlur in="SourceAlpha" stdDeviation="2"/>
  <feOffset dx="2" dy="2" result="offsetblur"/>
  <feFlood flood-color="rgb(0,0,0)" flood-opacity="0.05"/>
  <feComposite in2="offsetblur" operator="in"/>
  <feMerge>
    <feMergeNode/>
    <feMergeNode in="SourceGraphic"/>
  </feMerge>
</filter>
<title>general / earth logo</title>
<desc>Created with Sketch.</desc>
<g id="Symbols">
	<g id="general-_x2F_-earth-logo" transform="translate(-12.000000, 0.000000)">
		<g id="SE_Logo" transform="translate(12.000000, 0.000000)">
			<g>
				<path id="Fill-48" class="st0" d="M32.3,15.3c-1.9,0.6-2.6,0.9-3.2,1.2c-0.8,0.4-1.3,1.3-1.3,2.3c0,0.8,0.3,2.1,2.1,2.1
					c0.6,0,1.5-0.1,2.3-0.7L32.3,15.3L32.3,15.3z M28.8,22.9c-3.9,0-4.2-3-4.2-3.9c0-1.1,0.3-2.9,2.8-3.9c2.6-0.9,3.1-1.1,4.9-1.6
					V13c0-0.9,0-1.1-0.2-1.6c-0.3-1-1.3-1.6-2.6-1.6c-1.9,0-2.7,1.5-2.7,1.5l-0.2,0.3l-0.7-0.4L26,11c0.3-1.1,1.8-3,4.8-3
					c2,0,3.3,0.6,4.1,1.8c0.6,1,0.7,2.3,0.7,3.7c0,1.2,0,2.6-0.1,3.7c0,0.8,0,1.4,0,1.8c0,1,0.2,1.8,1,1.8c0.2,0,0.3,0,0.5-0.1
					l0.2-0.2l0.5,0.5l-0.2,0.2c-0.8,0.9-1.5,1.6-2.8,1.6c-1.1,0-1.9-0.5-2.2-1.5C31.8,22,30.7,22.9,28.8,22.9L28.8,22.9z"/>
				<path id="Fill-49" class="st0" d="M5.1,22.8c-1.9,0-3.3-0.2-4.7-0.7L0.2,22v-1c0-1.4,0-1.9-0.1-2.4v-0.7h0.8v0.3
					c0,0.6,0.3,1.3,0.6,1.7c0.6,0.7,2,1.1,3.3,1.1c2.7,0,4-1,4-3.3c0-1.9-1.2-2.7-2.8-3.8l-0.3-0.2L4,12.6C1.6,11,0.4,9.8,0.4,7.2
					c0-1.2,0.5-5.3,6.5-5.3c2.5,0,4.4,0.3,4.5,0.3h0.3v0.3c0,0,0,0.8,0,1.6c0,0.7,0,1.2,0,1.9v0.4H11V6.1c-0.1-0.8-0.3-1.3-0.7-1.7
					C9.6,4,8.4,3.8,7,3.8c-3.2,0-3.6,1.6-3.6,2.9c0,1.7,0.9,2.3,2.8,3.5l2.2,1.4c1.9,1.2,3.6,2.4,3.6,5.5C12,22.3,7.1,22.8,5.1,22.8
					"/>
				<path id="Fill-50" class="st0" d="M19.3,22.9c-2.2,0-3.5-0.8-4-2.6c-0.2-0.7-0.2-2.1-0.2-2.9c0-2.3,0-4.1,0-6.3v-1h-1.9V9.6
					l0.2-0.1c0.9-0.4,1.2-0.6,1.6-0.9c1.4-1.1,2.3-2.9,2.4-2.9l0.3-0.5h0.6v3.2h4.9v1.8h-4.9v7.5c0,2.2,0.4,3.5,2.6,3.5
					c1,0,1.8-0.4,1.8-0.4l0.3-0.2l0.2,0.6l-0.1,0.1C23,21.5,21.9,22.9,19.3,22.9"/>
				<path id="Fill-51" class="st0" d="M38.9,22.7V22h0.3c0.2,0,0.9-0.1,1.3-0.6c0.4-0.5,0.5-1.7,0.5-4.2v-4.1c0-1.8,0-2.5-0.3-2.9
					s-0.9-0.5-1.3-0.5h-0.1H39V8.9h0.3c0.1,0,0.1,0,0.2,0c0.4,0,1.5-0.1,2.6-0.3c0.8-0.1,1.3-0.4,1.5-0.5L43.8,8L44,8.3v1.1
					C44.8,8.9,46.2,8,48.2,8c2.6,0,4.3,1.2,4.8,3.4c0.1,0.5,0.2,1.9,0.2,2.6v4.2c0,2.4,0.1,3,0.5,3.4c0.2,0.2,0.7,0.4,1.1,0.4h0.3
					v0.7h-0.7c-1-0.1-1.9-0.1-2.9-0.1c-1.1,0-2,0-3.3,0.1h-0.3V22h0.3c0.6-0.1,0.9-0.2,1.2-0.5c0.5-0.5,0.5-1.6,0.5-2.5
					c0-0.2,0-0.3,0-0.5c0-0.5,0-1.7,0-2.5c0-1.1,0-2.2-0.1-3.3c-0.2-1.9-1.2-2.7-3.1-2.7c-1.3,0-2.1,0.3-2.7,0.6v7.5
					c0,2.4,0.1,3,0.5,3.4c0.2,0.2,0.7,0.4,1.1,0.4h0.3v0.7h-0.8c-1-0.1-1.9-0.1-2.8-0.1c-1,0-2,0-3.3,0.1L38.9,22.7"/>
				<path id="Fill-52" class="st0" d="M56.8,22.7V22h0.3c0.2,0,0.9-0.1,1.3-0.6c0.4-0.5,0.5-1.7,0.5-4.1v-7.1H57V9.4l0.2-0.1
					C58,9,58.5,8.7,58.9,8.4c0-1.3,0-2.9,0.2-3.8c0.6-3,2.5-4.5,5.8-4.5c1.4,0,2.7,0.5,3.5,1.1l0.1,0.1v0.3l-1.4,2h-0.3l-0.1-0.2
					c-0.5-1.2-1.3-1.7-2.4-1.7c-0.5,0-1.1,0.1-1.4,0.5C62.1,2.9,62,3.8,62,5.6v2.8h3.2v1.8H62v8c0,1.9,0.1,2.8,0.3,3.2
					c0.4,0.6,1.6,0.7,2,0.7h0.3v0.8h-0.3c-1.6-0.1-2.8-0.1-3.6-0.1c-1.1,0-2.3,0-3.6,0.1L56.8,22.7"/>
				<path id="Fill-53" class="st0" d="M73.5,9.6c-0.8,0-1.5,0.2-2,0.7c-1.2,1-1.7,2.7-1.7,5.2c0,1,0.2,5.8,3.7,5.8
					c0.8,0,1.5-0.2,2-0.6c1.2-1,1.7-2.7,1.7-5.2C77.2,14.5,77,9.6,73.5,9.6 M73.3,23c-4.4,0-7-2.7-7-7.3c0-3.5,1.9-7.7,7.3-7.7
					c4.4,0,7,2.7,7,7.3C80.6,18.8,78.7,23,73.3,23"/>
				<path id="Fill-54" class="st0" d="M82,22.7V22h0.3c0.2,0,0.8-0.1,1.3-0.6c0.4-0.5,0.5-1.7,0.5-4.1v-4.1c0-1.8,0-2.5-0.3-2.9
					s-0.9-0.5-1.3-0.5h-0.1h-0.3V8.9h0.3c0.1,0,0.1,0,0.2,0c0.4,0,1.5-0.1,2.6-0.3c0.7-0.1,1.3-0.3,1.5-0.4l0.2-0.1l0.3,0.1v1.2
					c0.7-0.6,1.8-1.3,3.3-1.3c1,0,1.8,0.3,2.4,0.8L93,9.1v0.5l-1.2,2.2h-0.6l-0.1-0.1c-0.3-0.5-1-1.2-2.3-1.2
					c-0.6,0-1.1,0.1-1.6,0.5v7.2c0,1.9,0.1,2.8,0.3,3.2c0.4,0.6,1.6,0.6,2,0.6h0.3v0.8h-0.3c-1.6-0.1-2.8-0.1-3.6-0.1
					c-1.1,0-2.3,0-3.6,0.1L82,22.7"/>
				<path id="Fill-55" class="st0" d="M101.4,9.6c-2.8,0-4.2,1.9-4.2,5.8c0,1.6,0.5,5.3,4.6,5.3h0.1c0.5,0,1.5-0.1,2.3-0.6v-9.6
					C104,10.3,103.1,9.6,101.4,9.6 M104.7,22.7l-0.4-0.1v-1.2c-0.7,0.5-2.1,1.3-4,1.3c-3.9,0-6.5-2.7-6.5-7c0-1.4,0.3-2.7,0.8-3.9
					c1.2-2.6,3.7-4.1,6.9-4.1c1.2,0,2.2,0.1,2.8,0.3V5c0-1.8,0-2.7-0.3-3.1s-0.9-0.5-1.3-0.5h-0.1h-0.3l0.1-0.6h0.3
					c0.1,0,1.7-0.1,3.1-0.4c0.6-0.1,1.1-0.2,1.4-0.3l0.1-0.1l0.3,0.1v0.1c-0.1,1.2-0.1,3.7-0.1,5.6v11.7c0,1.7,0,2.8,0.3,3.2
					c0.3,0.4,0.9,0.5,1.3,0.5h0.1h0.3V22h-0.3c-0.3,0-1.6,0.1-2.8,0.3c-0.7,0.1-1.2,0.2-1.5,0.3L104.7,22.7"/>
			</g>
		</g>
	</g>
</g>
</svg>
