<?xml version="1.0" encoding="utf-8"?>
<!-- Generator: Adobe Illustrator 21.1.0, SVG Export Plug-In . SVG Version: 6.00 Build 0)  -->
<svg version="1.1" id="Layer_1" xmlns="http://www.w3.org/2000/svg" xmlns:xlink="http://www.w3.org/1999/xlink" x="0px" y="0px"
	 viewBox="0 0 13 13" style="enable-background:new 0 0 13 13;" xml:space="preserve">
<title>menu carrot</title>
<g id="Interactions">
	<g id="se_department-dropdown-grad_ui" transform="translate(-809.000000, -24.000000)">
		<g id="nav-_x2F_-chevron" transform="translate(805.000000, 17.000000)">
			
				<g id="nav-_x2F_-arrow" transform="translate(8.174154, 7.636753) rotate(135.000000) translate(-8.174154, -7.636753) translate(5.454154, 5.236753)">
				
					<g id="_x31_53---Arrow-Top-Right-_x28_arrow_x2C_-direction_x2C_-orientation_x2C_-Flat_x29__1_" transform="translate(0.000000, -0.000000)">
					<g id="Page-1" transform="translate(-0.000000, -0.000000)">
						<g id="Icons" transform="translate(0.000000, -0.000000)">
							
								<g id="_x31_53---Arrow-Top-Right-_x28_arrow_x2C_-direction_x2C_-orientation_x2C_-Flat_x29_" transform="translate(-0.000000, -0.000000)">
								<path d="M7.7-5.8c0.2,0.2,0.2,0.4,0.2,0.5v8.2c0,0.4-0.3,0.7-0.7,0.8C7,3.7,6.8,3.6,6.7,3.5C6.5,3.2,6.4,3,6.4,2.8v-7.4
									h-7.3c-0.2,0-0.4-0.1-0.5-0.2C-1.6-5-1.7-5.1-1.7-5.4c0-0.2,0.1-0.4,0.2-0.5C-1.3-6-1.1-6.1-0.9-6.1h8.1
									C7.3-6.1,7.4-6,7.5-6l0,0L7.7-5.8C7.7-5.9,7.7-5.8,7.7-5.8z"/>
							</g>
						</g>
					</g>
				</g>
			</g>
		</g>
	</g>
</g>
</svg>
