<?xml version="1.0" encoding="utf-8"?>
<!-- Generator: Adobe Illustrator 21.1.0, SVG Export Plug-In . SVG Version: 6.00 Build 0)  -->
<svg version="1.1" id="Layer_1" xmlns="http://www.w3.org/2000/svg" xmlns:xlink="http://www.w3.org/1999/xlink" x="0px" y="0px"
	 viewBox="0 0 52 52" style="enable-background:new 0 0 52 52;" xml:space="preserve">
<style type="text/css">
	.st0{opacity:0.7;}
	.st1{fill:none;stroke:#4D4F53;stroke-width:2.153;stroke-opacity:0.1;}
</style>
<title>icons / chart</title>
<desc>Created with Sketch.</desc>
<g id="Symbols" class="st0">
	<g id="icons-_x2F_-chart">
		<g id="chart_ico" transform="translate(9.000000, 5.000000)">
			<path id="Stroke-273" class="st1" d="M18.7,19.3h22.5C40.3,7.3,30.7-2.4,18.7-3.2V19.3L18.7,19.3z"/>
			<path id="Stroke-275" class="st1" d="M34.9,37.4c3.6-3.9,6-9.1,6.4-14.7H20.1L34.9,37.4L34.9,37.4z"/>
			<path id="Fill-280" class="st1" d="M22.1-0.7c0,0.5-0.4,0.8-0.8,0.8c-0.5,0-0.8-0.4-0.8-0.8s0.4-0.8,0.8-0.8
				C21.7-1.6,22.1-1.2,22.1-0.7"/>
			<path id="Fill-281" class="st1" d="M22.1,4.3c0,0.5-0.4,0.8-0.8,0.8c-0.5,0-0.8-0.4-0.8-0.8c0-0.5,0.4-0.8,0.8-0.8
				C21.7,3.4,22.1,3.8,22.1,4.3"/>
			<path id="Fill-282" class="st1" d="M24.6,1.8c0,0.5-0.4,0.8-0.8,0.8c-0.5,0-0.8-0.4-0.8-0.8c0-0.5,0.4-0.8,0.8-0.8
				C24.2,0.9,24.6,1.3,24.6,1.8"/>
			<path id="Fill-283" class="st1" d="M29.6,1.8c0,0.5-0.4,0.8-0.8,0.8c-0.5,0-0.8-0.4-0.8-0.8c0-0.5,0.4-0.8,0.8-0.8
				C29.2,0.9,29.6,1.3,29.6,1.8"/>
			<path id="Fill-284" class="st1" d="M27.1-0.7c0,0.5-0.4,0.8-0.8,0.8c-0.5,0-0.8-0.4-0.8-0.8s0.4-0.8,0.8-0.8
				C26.7-1.6,27.1-1.2,27.1-0.7"/>
			<path id="Fill-285" class="st1" d="M27.1,4.3c0,0.5-0.4,0.8-0.8,0.8c-0.5,0-0.8-0.4-0.8-0.8c0-0.5,0.4-0.8,0.8-0.8
				C26.7,3.4,27.1,3.8,27.1,4.3"/>
			<path id="Fill-286" class="st1" d="M32.1,4.3c0,0.5-0.4,0.8-0.8,0.8c-0.5,0-0.8-0.4-0.8-0.8c0-0.5,0.4-0.8,0.8-0.8
				C31.7,3.4,32.1,3.8,32.1,4.3"/>
			<path id="Fill-287" class="st1" d="M34.6,6.8c0,0.5-0.4,0.8-0.8,0.8c-0.5,0-0.8-0.4-0.8-0.8c0-0.5,0.4-0.8,0.8-0.8
				C34.2,5.9,34.6,6.3,34.6,6.8"/>
			<path id="Fill-288" class="st1" d="M24.6,6.8c0,0.5-0.4,0.8-0.8,0.8c-0.5,0-0.8-0.4-0.8-0.8c0-0.5,0.4-0.8,0.8-0.8
				C24.2,5.9,24.6,6.3,24.6,6.8"/>
			<path id="Fill-289" class="st1" d="M29.6,6.8c0,0.5-0.4,0.8-0.8,0.8c-0.5,0-0.8-0.4-0.8-0.8c0-0.5,0.4-0.8,0.8-0.8
				C29.2,5.9,29.6,6.3,29.6,6.8"/>
			<path id="Fill-290" class="st1" d="M39.6,11.8c0,0.5-0.4,0.8-0.8,0.8c-0.5,0-0.8-0.4-0.8-0.8s0.4-0.8,0.8-0.8
				C39.2,10.9,39.6,11.3,39.6,11.8"/>
			<path id="Fill-291" class="st1" d="M34.6,11.8c0,0.5-0.4,0.8-0.8,0.8c-0.5,0-0.8-0.4-0.8-0.8s0.4-0.8,0.8-0.8
				C34.2,10.9,34.6,11.3,34.6,11.8"/>
			<path id="Fill-292" class="st1" d="M37.1,9.3c0,0.5-0.4,0.8-0.8,0.8c-0.5,0-0.8-0.4-0.8-0.8c0-0.5,0.4-0.8,0.8-0.8
				C36.7,8.4,37.1,8.8,37.1,9.3"/>
			<path id="Fill-293" class="st1" d="M37.1,14.3c0,0.5-0.4,0.8-0.8,0.8c-0.5,0-0.8-0.4-0.8-0.8c0-0.5,0.4-0.8,0.8-0.8
				C36.7,13.5,37.1,13.8,37.1,14.3"/>
			<path id="Fill-294" class="st1" d="M22.1,9.3c0,0.5-0.4,0.8-0.8,0.8c-0.5,0-0.8-0.4-0.8-0.8c0-0.5,0.4-0.8,0.8-0.8
				C21.7,8.4,22.1,8.8,22.1,9.3"/>
			<path id="Fill-295" class="st1" d="M22.1,14.3c0,0.5-0.4,0.8-0.8,0.8c-0.5,0-0.8-0.4-0.8-0.8c0-0.5,0.4-0.8,0.8-0.8
				C21.7,13.5,22.1,13.8,22.1,14.3"/>
			<path id="Fill-296" class="st1" d="M24.6,11.8c0,0.5-0.4,0.8-0.8,0.8c-0.5,0-0.8-0.4-0.8-0.8s0.4-0.8,0.8-0.8
				C24.2,10.9,24.6,11.3,24.6,11.8"/>
			<path id="Fill-297" class="st1" d="M29.6,11.8c0,0.5-0.4,0.8-0.8,0.8c-0.5,0-0.8-0.4-0.8-0.8s0.4-0.8,0.8-0.8
				C29.2,10.9,29.6,11.3,29.6,11.8"/>
			<path id="Fill-298" class="st1" d="M27.1,9.3c0,0.5-0.4,0.8-0.8,0.8c-0.5,0-0.8-0.4-0.8-0.8c0-0.5,0.4-0.8,0.8-0.8
				C26.7,8.4,27.1,8.8,27.1,9.3"/>
			<path id="Fill-299" class="st1" d="M32.1,9.3c0,0.5-0.4,0.8-0.8,0.8c-0.5,0-0.8-0.4-0.8-0.8c0-0.5,0.4-0.8,0.8-0.8
				C31.7,8.4,32.1,8.8,32.1,9.3"/>
			<path id="Fill-300" class="st1" d="M27.1,14.3c0,0.5-0.4,0.8-0.8,0.8c-0.5,0-0.8-0.4-0.8-0.8c0-0.5,0.4-0.8,0.8-0.8
				C26.7,13.5,27.1,13.8,27.1,14.3"/>
			<path id="Fill-301" class="st1" d="M32.1,14.3c0,0.5-0.4,0.8-0.8,0.8c-0.5,0-0.8-0.4-0.8-0.8c0-0.5,0.4-0.8,0.8-0.8
				C31.7,13.5,32.1,13.8,32.1,14.3"/>
			<path id="Fill-302" class="st1" d="M39.6,16.8c0,0.5-0.4,0.8-0.8,0.8c-0.5,0-0.8-0.4-0.8-0.8c0-0.5,0.4-0.8,0.8-0.8
				C39.2,16,39.6,16.3,39.6,16.8"/>
			<path id="Fill-303" class="st1" d="M34.6,16.8c0,0.5-0.4,0.8-0.8,0.8c-0.5,0-0.8-0.4-0.8-0.8c0-0.5,0.4-0.8,0.8-0.8
				C34.2,16,34.6,16.3,34.6,16.8"/>
			<path id="Fill-304" class="st1" d="M24.6,16.8c0,0.5-0.4,0.8-0.8,0.8c-0.5,0-0.8-0.4-0.8-0.8c0-0.5,0.4-0.8,0.8-0.8
				C24.2,16,24.6,16.3,24.6,16.8"/>
			<path id="Fill-305" class="st1" d="M29.6,16.8c0,0.5-0.4,0.8-0.8,0.8c-0.5,0-0.8-0.4-0.8-0.8c0-0.5,0.4-0.8,0.8-0.8
				C29.2,16,29.6,16.3,29.6,16.8"/>
			<path id="Stroke-311" class="st1" d="M15.3,20.3V-3.2C2.7-2.3-7.2,8.2-7.2,21c0,6.1,2.3,11.6,6,15.9L15.3,20.3L15.3,20.3z"/>
			<path id="Stroke-313" class="st1" d="M16.5,23.8L1.1,39.2c4.3,3.7,9.8,6,15.9,6c5.8,0,11.2-2.1,15.4-5.5L16.5,23.8L16.5,23.8z"/>
			<path id="Stroke-557" class="st1" d="M28.1,35.4l-9.8,9.8"/>
			<path id="Stroke-559" class="st1" d="M24,44.2l6.4-6.4"/>
			<path id="Stroke-561" class="st1" d="M13.7,45l12-12"/>
			<path id="Stroke-563" class="st1" d="M23.3,30.6L9.9,44.1"/>
			<path id="Stroke-565" class="st1" d="M6.5,42.8L21,28.3"/>
			<path id="Stroke-567" class="st1" d="M18.6,25.9L3.5,41.1"/>
		</g>
	</g>
</g>
</svg>
