<?xml version="1.0" encoding="utf-8"?>
<!-- Generator: Adobe Illustrator 21.1.0, SVG Export Plug-In . SVG Version: 6.00 Build 0)  -->
<svg version="1.1" id="Layer_1" xmlns="http://www.w3.org/2000/svg" xmlns:xlink="http://www.w3.org/1999/xlink" x="0px" y="0px"
	 viewBox="0 0 52 52" style="enable-background:new 0 0 52 52;" xml:space="preserve">
<style type="text/css">
	.st0{fill:none;stroke:#DAD7CB;stroke-width:0.8784;}
</style>
<title>icons / complex</title>
<desc>Created with Sketch.</desc>
<g id="Symbols">
	<g id="icons-_x2F_-complex">
		<g id="_x31_85-photos-interaction-communication-essential-outline" transform="translate(2.000000, 0.000000)">
			<path id="Stroke-616" class="st0" d="M23.9,51.4L23.9,51.4c-4.3,0-7.9-3.6-7.9-7.9V8.4c0-4.3,3.6-7.9,7.9-7.9s7.9,3.6,7.9,7.9
				v35.1C31.8,47.9,28.3,51.4,23.9,51.4L23.9,51.4z"/>
			<path id="Stroke-618" class="st0" d="M-1.5,25.9L-1.5,25.9c0-4.3,3.6-7.9,7.9-7.9h35.1c4.3,0,7.9,3.6,7.9,7.9s-3.6,7.9-7.9,7.9
				H6.4C2,33.8-1.5,30.3-1.5,25.9L-1.5,25.9z"/>
			<path id="Stroke-620" class="st0" d="M5.9,44L5.9,44c-3.1-3.1-3.1-8.1,0-11.2L30.8,7.9c3.1-3.1,8.1-3.1,11.2,0
				C45,11,45,16,42,19.1L17.1,44C14,47,9,47,5.9,44L5.9,44z"/>
			<path id="Stroke-622" class="st0" d="M5.9,7.9L5.9,7.9C9,4.9,14,4.9,17.1,7.9L42,32.8C45,35.8,45,40.9,42,44s-8.1,3.1-11.2,0
				L5.9,19.1C2.9,16,2.9,11,5.9,7.9L5.9,7.9z"/>
		</g>
	</g>
</g>
</svg>
