<?xml version="1.0" encoding="utf-8"?>
<!-- Generator: Adobe Illustrator 21.1.0, SVG Export Plug-In . SVG Version: 6.00 Build 0)  -->
<svg version="1.1" id="Layer_1" xmlns="http://www.w3.org/2000/svg" xmlns:xlink="http://www.w3.org/1999/xlink" x="0px" y="0px"
	 viewBox="0 0 52 52" style="enable-background:new 0 0 52 52;" xml:space="preserve">
<style type="text/css">
	.st0{fill:none;stroke:#4D4F53;stroke-width:2.0905;stroke-opacity:0.1;}
</style>
<title>icons / compass</title>
<desc>Created with Sketch.</desc>
<g id="Symbols">
	<g id="icons-_x2F_-compass">
		<g id="compass_ico" transform="translate(8.000000, -7.000000)">
			<path id="Stroke-68" class="st0" d="M18.1,13.5v3.2V13.5z M18.1,48.7v3.2V48.7z M37.3,32.7h-3.2H37.3z M2,32.7h-2.1H2z
				 M14.8,29.5l-3.2-3.2L14.8,29.5z M21.3,29.5l3.2-3.2L21.3,29.5z M14.8,35.9l-3.2,3.2L14.8,35.9z M21.3,35.9l3.2,3.2L21.3,35.9z"
				/>
			<path id="Stroke-69" class="st0" d="M21.2,29.5c-0.1-2.2-1.9-8.6-3.1-8.6c-1.2,0-3,6.4-3.1,8.7c-2.2,0.1-8.6,1.9-8.6,3.1
				c0,1.2,6.5,3,8.7,3.1c0.1,2.2,1.9,8.6,3.1,8.6c1.2,0,3-6.5,3.1-8.6c2.2-0.1,8.7-1.9,8.7-3.1C29.8,31.5,23.4,29.7,21.2,29.5
				L21.2,29.5z"/>
			<path id="Stroke-70" class="st0" d="M18,13.8V17V13.8z M18,49v3.2V49z M37.2,33H34H37.2z M2,33h-3.2H2z M18,57.5
				C4.5,57.5-6.6,46.5-6.6,33c0-13.5,11-24.5,24.6-24.5s24.6,11,24.6,24.5C42.6,46.5,31.5,57.5,18,57.5L18,57.5z M1.3,23.4L4.1,25
				L1.3,23.4z M31.9,41l2.8,1.6L31.9,41z M27.6,16.4L26,19.1L27.6,16.4z M10,46.9l-1.1,1.8L10,46.9z M1.3,23.4L4.1,25L1.3,23.4z
				 M31.9,41l2.8,1.6L31.9,41z M27.6,16.4L26,19.1L27.6,16.4z M10,46.9l-1.6,2.8L10,46.9z M8.4,16.4l1.6,2.8L8.4,16.4z M26,46.9
				l1.6,2.8L26,46.9z M34.7,23.4L31.9,25L34.7,23.4z M4.1,41l-1.9,1.1L4.1,41z M8.4,16.4l1.6,2.8L8.4,16.4z M26,46.9l1.6,2.8
				L26,46.9z M34.7,23.4L31.9,25L34.7,23.4z M4.1,41l-2.8,1.6L4.1,41z"/>
		</g>
	</g>
</g>
</svg>
