<?xml version="1.0" encoding="utf-8"?>
<!-- Generator: Adobe Illustrator 21.1.0, SVG Export Plug-In . SVG Version: 6.00 Build 0)  -->
<svg version="1.1" id="Layer_1" xmlns="http://www.w3.org/2000/svg" xmlns:xlink="http://www.w3.org/1999/xlink" x="0px" y="0px"
	 viewBox="0 0 52 52" style="enable-background:new 0 0 52 52;" xml:space="preserve">
<style type="text/css">
	.st0{fill:none;stroke:#DAD7CB;stroke-width:0.8679;}
	.st1{fill:#FFFFFF;stroke:#DAD7CB;stroke-width:0.8679;}
</style>
<title>icons / earthsearch</title>
<desc>Created with Sketch.</desc>
<g id="Symbols">
	<g id="icons-_x2F_-earthsearch">
		<g id="Group-2" transform="translate(-1.000000, -6.000000)">
			<g id="_x31_9-earth-space-astronomy-outline" transform="translate(12.000000, 0.000000)">
				<g id="Mask">
				</g>
				<g id="_x31_9---Earth-_x28_space_x2C_-astronomy_x2C_-outline_x29_">
					<g transform="translate(1.448276, 9.000000)">
						<g>
							<g id="Page-1">
								<g id="Icons">
									<g id="Earth">
										<path id="Path" class="st0" d="M39,19.7C39,30.9,30,40,18.8,40S-1.4,30.8-1.4,19.7s9-20.3,20.2-20.3S39,8.5,39,19.7
											L39,19.7z"/>
										<path id="Path_6_" class="st0" d="M19.3-0.6"/>
										<polygon id="Path_3_" class="st0" points="5.7,24.8 5.8,24.8 5.9,24.7 										"/>
										<path id="Path_4_" class="st0" d="M21.1,28.6l-3.7-2.8l-2.5,0.1l-2.6-0.8l-2-1.4l-4.6,1.1l-1.9,0.9l-2.1,2.8l0.7,3.3
											c0.2,0.3,0.4,0.5,0.7,0.8L7,34.4l2.6,0.4l1.6,3.2v0.3c2.2,0.8,4.6,1.3,7.2,1.3c1.7,0,3.4-0.2,5-0.6l0.5-3.2l2.4-2l1-3.1
											h-5L21.1,28.6L21.1,28.6z"/>
										<path id="Path_2_" class="st0" d="M-1.3,22.5c0.9-0.9,1.7-1.1,2.4-2.4c0.8-1.4-0.2-1.4,0-3.6c0.2-2.3-0.2-1.2,0-3.6
											c0.1-1.5,0.3-1.8-0.3-2.3C0.8,10.6-2.1,15.6-1.3,22.5z"/>
									</g>
								</g>
							</g>
						</g>
					</g>
				</g>
			</g>
			
				<g id="_x33_78-search-interaction-communication-essential-outline" transform="translate(15.465517, 49.925926) scale(-1, 1) translate(-15.465517, -49.925926) translate(0.965517, 34.925926)">
				<path id="Stroke-8" class="st1" d="M23.3,5.9c0,5.5-4.4,9.9-9.9,9.9s-9.9-4.4-9.9-9.9S8-4,13.5-4S23.3,0.4,23.3,5.9L23.3,5.9z"
					/>
				<path id="Stroke-9" class="st0" d="M20.7,14l7.7,8"/>
			</g>
		</g>
	</g>
	<path id="Path_1_" class="st0" d="M31.1,2.4L31.1,2.4c-2.8,0-5.5,0.6-7.9,1.6c-0.1,0.7-0.7,1.8-0.6,2.2c0.1,0,5.1-5.2,4.5-1.7
		c-0.4,2.3-4.5,2.2-4.4,4.5c4.3,1.7,5.9-3.2,9.5-3.2c1.2,0,4.4-1.9,5-1.5c2.4,1.6-0.6,7.3-2.4,5.4c-1.8-1.8-4.3,0.6-4.2,3.4
		c0.9,0,1.3-2.7,2.2-1.8c0.9,1,0.6,3-0.7,3.4c-1.3,0.5-6.3-3.4-5.1-0.5c1.4,3.3-4.1,5.8,1.4,4.5c2.6-0.6,1.7,1.4,2.9,2.3
		c1.5,1.1,0.8-1.5,1.9-1.1c1.5,0.6-0.3,2.1,2.2,1c2.8-1.3,1.8,0.7,2.6,2c1.6,2.5,5.6,4.8,7.7,1.6c0.5-0.8,0.2-6.8,3.3-2.8
		c2,2.6,1.3-3.1,1.6-4.5C48.2,8.7,40.3,2.4,31.1,2.4"/>
</g>
</svg>
