<?xml version="1.0" encoding="utf-8"?>
<!-- Generator: Adobe Illustrator 21.1.0, SVG Export Plug-In . SVG Version: 6.00 Build 0)  -->
<svg version="1.1" id="Layer_1" xmlns="http://www.w3.org/2000/svg" xmlns:xlink="http://www.w3.org/1999/xlink" x="0px" y="0px"
	 viewBox="0 0 52 52" style="enable-background:new 0 0 52 52;" xml:space="preserve">
<style type="text/css">
	.st0{fill:none;stroke:#DAD7CB;stroke-width:0.8413;}
</style>
<title>icons / earth</title>
<desc>Created with Sketch.</desc>
<g id="Symbols">
	<g id="icons-_x2F_-earth">
		<g id="_x31_9-earth-space-astronomy-outline" transform="translate(2.000000, 0.000000)">
			<g id="_x31_9---Earth-_x28_space_x2C_-astronomy_x2C_-outline_x29_">
				<g id="Page-1">
					<g id="Icons">
						<g id="Earth">
							<path id="Path" class="st0" d="M49.3,25.9c0,13.9-11.3,25.2-25.2,25.2S-1.2,39.8-1.2,25.9S10.1,0.6,24.1,0.6
								S49.3,11.9,49.3,25.9L49.3,25.9z"/>
							<path id="Path_1_" class="st0" d="M24.6,0.6c-3.5,0-6.8,0.7-9.9,2c-0.1,0.8-0.8,2.2-0.8,2.7c0.1,0,6.4-6.4,5.6-2.1
								C19.1,6,13.9,6,14.1,8.8c5.4,2.1,7.3-4,11.9-4c1.5,0,5.5-2.4,6.2-1.9c3,2-0.7,9.1-3,6.7c-2.2-2.2-5.4,0.8-5.3,4.3
								c1.2,0.1,1.7-3.3,2.7-2.2c1.2,1.2,0.7,3.7-0.9,4.3c-1.6,0.6-7.9-4.3-6.4-0.6c1.7,4.1-5.1,7.2,1.8,5.6
								c3.2-0.8,2.2,1.7,3.7,2.9c1.8,1.4,1-1.9,2.3-1.4c1.9,0.7-0.3,2.7,2.7,1.3c3.5-1.6,2.2,0.9,3.3,2.5c2,3.1,7,6,9.6,2
								c0.6-1,0.2-8.5,4.1-3.5c2.5,3.2,1.6-3.8,2-5.7C46,8.4,36.2,0.6,24.6,0.6L24.6,0.6z"/>
							<polygon id="Path_2_" class="st0" points="11.6,30.9 8.9,32.2 12.5,31 							"/>
							<polygon id="Path_3_" class="st0" points="7.6,32.3 7.8,32.2 8,32.2 							"/>
							<path id="Path_4_" class="st0" d="M26.9,37l-4.7-3.5l-3.1,0.1l-3.2-1l-2.5-1.7l-5.7,1.3l-2.4,1.1l-2.6,3.6l0.9,4.2
								c0.3,0.3,0.5,0.7,0.8,1l4.9,2.3l3.3,0.4l2,4l0.1,0.4c2.8,1.1,5.8,1.6,8.9,1.6c2.2,0,4.3-0.3,6.3-0.8l0.7-4l3-2.4l1.3-3.9
								l-6.3,0L26.9,37L26.9,37z"/>
							<path id="Path_5_" class="st0" d="M-1.2,29.5c0,0,0.1-0.1,0.1-0.1c1.1-1.1,2.1-1.3,3-3c0.9-1.7-0.2-1.7,0-4.5
								c0.2-2.8-0.2-1.5,0-4.5c0.1-1.8-0.3-2.3-1-2.8"/>
						</g>
					</g>
				</g>
			</g>
		</g>
	</g>
</g>
</svg>
