<?xml version="1.0" encoding="utf-8"?>
<!-- Generator: Adobe Illustrator 21.1.0, SVG Export Plug-In . SVG Version: 6.00 Build 0)  -->
<svg version="1.1" id="Layer_1" xmlns="http://www.w3.org/2000/svg" xmlns:xlink="http://www.w3.org/1999/xlink" x="0px" y="0px"
	 viewBox="0 0 52 52" style="enable-background:new 0 0 52 52;" xml:space="preserve">
<style type="text/css">
	.st0{fill:none;stroke:#4D4F53;stroke-width:1.7438;stroke-opacity:0.1;}
</style>
<title>icons / earth systems</title>
<desc>Created with Sketch.</desc>
<g id="Symbols">
	<g id="icons-_x2F_-earth-systems">
		<g id="_x31_1-landscape-outdoor-camping-travel-outline" transform="translate(3.000000, 1.000000)">
			<polygon id="Stroke-1" class="st0" points="35.9,50.6 -2.4,50.6 16.8,14 			"/>
			<polygon id="Stroke-3" class="st0" points="13.3,28 15,26.2 16.8,28 18.5,26.2 20.2,28 22.7,25.5 16.8,14 10.8,25.5 			"/>
			<polygon id="Stroke-4" class="st0" points="0.2,21.9 1.9,20.1 3.7,21.9 6.3,20.1 8,21.9 9.8,19.2 3.7,7 -2.4,19.2 			"/>
			<polygon id="Stroke-189" class="st0" points="3.7,7 -2.4,19.2 -2.4,50.6 12,23 			"/>
			<polygon id="Stroke-190" class="st0" points="45.5,22.7 41.2,19.2 33.3,7 26.3,16.6 19.5,19.2 35.9,50.6 48.1,50.6 48.1,28 			
				"/>
			<path id="Stroke-191" class="st0" d="M-0.7,1.8h2.6"/>
			<path id="Fill-192" class="st0" d="M7.2,1.8c0,0.5-0.4,0.9-0.9,0.9S5.4,2.3,5.4,1.8s0.4-0.9,0.9-0.9S7.2,1.3,7.2,1.8"/>
			<path id="Stroke-193" class="st0" d="M47.3,7.9h-2.6"/>
			<path id="Fill-194" class="st0" d="M39.4,7.9c0-0.5,0.4-0.9,0.9-0.9c0.5,0,0.9,0.4,0.9,0.9s-0.4,0.9-0.9,0.9
				C39.8,8.8,39.4,8.4,39.4,7.9"/>
			<path id="Stroke-195" class="st0" d="M23.7,3.7c0-0.1,0-0.1,0-0.2c0-1.4-1.2-2.6-2.6-2.6c-1.4,0-2.6,1.2-2.6,2.6h-0.9
				c-1.4,0-2.6,1.2-2.6,2.6s1.2,2.6,2.6,2.6h5.2c1.4,0,2.6-1.2,2.6-2.6C25.5,5,24.7,4.1,23.7,3.7L23.7,3.7z"/>
			<path id="Fill-202" class="st0" d="M30.7,13.1c0,0.5-0.4,0.9-0.9,0.9c-0.5,0-0.9-0.4-0.9-0.9s0.4-0.9,0.9-0.9
				C30.3,12.3,30.7,12.7,30.7,13.1"/>
			<path id="Fill-203" class="st0" d="M33.3,10.5c0,0.5-0.4,0.9-0.9,0.9c-0.5,0-0.9-0.4-0.9-0.9s0.4-0.9,0.9-0.9
				C32.9,9.7,33.3,10,33.3,10.5"/>
			<path id="Fill-204" class="st0" d="M35.9,13.1c0,0.5-0.4,0.9-0.9,0.9c-0.5,0-0.9-0.4-0.9-0.9s0.4-0.9,0.9-0.9
				C35.5,12.3,35.9,12.7,35.9,13.1"/>
			<path id="Fill-205" class="st0" d="M25.5,18.4c0,0.5-0.4,0.9-0.9,0.9c-0.5,0-0.9-0.4-0.9-0.9c0-0.5,0.4-0.9,0.9-0.9
				C25.1,17.5,25.5,17.9,25.5,18.4"/>
			<path id="Fill-206" class="st0" d="M30.7,18.4c0,0.5-0.4,0.9-0.9,0.9c-0.5,0-0.9-0.4-0.9-0.9c0-0.5,0.4-0.9,0.9-0.9
				C30.3,17.5,30.7,17.9,30.7,18.4"/>
			<path id="Fill-207" class="st0" d="M33.3,15.8c0,0.5-0.4,0.9-0.9,0.9c-0.5,0-0.9-0.4-0.9-0.9s0.4-0.9,0.9-0.9
				C32.9,14.9,33.3,15.3,33.3,15.8"/>
			<path id="Fill-208" class="st0" d="M35.9,18.4c0,0.5-0.4,0.9-0.9,0.9c-0.5,0-0.9-0.4-0.9-0.9c0-0.5,0.4-0.9,0.9-0.9
				C35.5,17.5,35.9,17.9,35.9,18.4"/>
			<path id="Fill-209" class="st0" d="M38.5,15.8c0,0.5-0.4,0.9-0.9,0.9c-0.5,0-0.9-0.4-0.9-0.9s0.4-0.9,0.9-0.9
				C38.2,14.9,38.5,15.3,38.5,15.8"/>
			<path id="Fill-210" class="st0" d="M22.9,21c0,0.5-0.4,0.9-0.9,0.9c-0.5,0-0.9-0.4-0.9-0.9c0-0.5,0.4-0.9,0.9-0.9
				C22.5,20.1,22.9,20.5,22.9,21"/>
			<path id="Fill-211" class="st0" d="M25.5,23.6c0,0.5-0.4,0.9-0.9,0.9c-0.5,0-0.9-0.4-0.9-0.9c0-0.5,0.4-0.9,0.9-0.9
				C25.1,22.7,25.5,23.1,25.5,23.6"/>
			<path id="Fill-212" class="st0" d="M30.7,23.6c0,0.5-0.4,0.9-0.9,0.9c-0.5,0-0.9-0.4-0.9-0.9c0-0.5,0.4-0.9,0.9-0.9
				C30.3,22.7,30.7,23.1,30.7,23.6"/>
			<path id="Fill-213" class="st0" d="M28.1,21c0,0.5-0.4,0.9-0.9,0.9c-0.5,0-0.9-0.4-0.9-0.9c0-0.5,0.4-0.9,0.9-0.9
				C27.7,20.1,28.1,20.5,28.1,21"/>
			<path id="Fill-214" class="st0" d="M33.3,21c0,0.5-0.4,0.9-0.9,0.9c-0.5,0-0.9-0.4-0.9-0.9c0-0.5,0.4-0.9,0.9-0.9
				C32.9,20.1,33.3,20.5,33.3,21"/>
			<path id="Fill-215" class="st0" d="M35.9,23.6c0,0.5-0.4,0.9-0.9,0.9c-0.5,0-0.9-0.4-0.9-0.9c0-0.5,0.4-0.9,0.9-0.9
				C35.5,22.7,35.9,23.1,35.9,23.6"/>
			<path id="Fill-216" class="st0" d="M41.2,23.6c0,0.5-0.4,0.9-0.9,0.9c-0.5,0-0.9-0.4-0.9-0.9c0-0.5,0.4-0.9,0.9-0.9
				C40.8,22.7,41.2,23.1,41.2,23.6"/>
			<path id="Fill-217" class="st0" d="M38.5,21c0,0.5-0.4,0.9-0.9,0.9c-0.5,0-0.9-0.4-0.9-0.9c0-0.5,0.4-0.9,0.9-0.9
				C38.2,20.1,38.5,20.5,38.5,21"/>
			<path id="Fill-218" class="st0" d="M30.7,28.8c0,0.5-0.4,0.9-0.9,0.9c-0.5,0-0.9-0.4-0.9-0.9c0-0.5,0.4-0.9,0.9-0.9
				C30.3,28,30.7,28.4,30.7,28.8"/>
			<path id="Fill-219" class="st0" d="M28.1,26.2c0,0.5-0.4,0.9-0.9,0.9c-0.5,0-0.9-0.4-0.9-0.9c0-0.5,0.4-0.9,0.9-0.9
				C27.7,25.4,28.1,25.7,28.1,26.2"/>
			<path id="Fill-220" class="st0" d="M33.3,26.2c0,0.5-0.4,0.9-0.9,0.9c-0.5,0-0.9-0.4-0.9-0.9c0-0.5,0.4-0.9,0.9-0.9
				C32.9,25.4,33.3,25.7,33.3,26.2"/>
			<path id="Fill-221" class="st0" d="M35.9,28.8c0,0.5-0.4,0.9-0.9,0.9c-0.5,0-0.9-0.4-0.9-0.9c0-0.5,0.4-0.9,0.9-0.9
				C35.5,28,35.9,28.4,35.9,28.8"/>
			<path id="Fill-222" class="st0" d="M41.2,28.8c0,0.5-0.4,0.9-0.9,0.9c-0.5,0-0.9-0.4-0.9-0.9c0-0.5,0.4-0.9,0.9-0.9
				C40.8,28,41.2,28.4,41.2,28.8"/>
			<path id="Fill-223" class="st0" d="M38.5,26.2c0,0.5-0.4,0.9-0.9,0.9c-0.5,0-0.9-0.4-0.9-0.9c0-0.5,0.4-0.9,0.9-0.9
				C38.2,25.4,38.5,25.7,38.5,26.2"/>
			<path id="Fill-224" class="st0" d="M43.8,26.2c0,0.5-0.4,0.9-0.9,0.9c-0.5,0-0.9-0.4-0.9-0.9c0-0.5,0.4-0.9,0.9-0.9
				C43.4,25.4,43.8,25.7,43.8,26.2"/>
			<path id="Fill-225" class="st0" d="M46.4,28.8c0,0.5-0.4,0.9-0.9,0.9c-0.5,0-0.9-0.4-0.9-0.9c0-0.5,0.4-0.9,0.9-0.9
				C46,28,46.4,28.4,46.4,28.8"/>
			<path id="Fill-226" class="st0" d="M30.7,34.1c0,0.5-0.4,0.9-0.9,0.9c-0.5,0-0.9-0.4-0.9-0.9c0-0.5,0.4-0.9,0.9-0.9
				C30.3,33.2,30.7,33.6,30.7,34.1"/>
			<path id="Fill-227" class="st0" d="M28.1,31.5c0,0.5-0.4,0.9-0.9,0.9c-0.5,0-0.9-0.4-0.9-0.9c0-0.5,0.4-0.9,0.9-0.9
				C27.7,30.6,28.1,31,28.1,31.5"/>
			<path id="Fill-228" class="st0" d="M33.3,31.5c0,0.5-0.4,0.9-0.9,0.9c-0.5,0-0.9-0.4-0.9-0.9c0-0.5,0.4-0.9,0.9-0.9
				C32.9,30.6,33.3,31,33.3,31.5"/>
			<path id="Fill-229" class="st0" d="M35.9,34.1c0,0.5-0.4,0.9-0.9,0.9c-0.5,0-0.9-0.4-0.9-0.9c0-0.5,0.4-0.9,0.9-0.9
				C35.5,33.2,35.9,33.6,35.9,34.1"/>
			<path id="Fill-230" class="st0" d="M41.2,34.1c0,0.5-0.4,0.9-0.9,0.9c-0.5,0-0.9-0.4-0.9-0.9c0-0.5,0.4-0.9,0.9-0.9
				C40.8,33.2,41.2,33.6,41.2,34.1"/>
			<path id="Fill-231" class="st0" d="M38.5,31.5c0,0.5-0.4,0.9-0.9,0.9c-0.5,0-0.9-0.4-0.9-0.9c0-0.5,0.4-0.9,0.9-0.9
				C38.2,30.6,38.5,31,38.5,31.5"/>
			<path id="Fill-232" class="st0" d="M43.8,31.5c0,0.5-0.4,0.9-0.9,0.9c-0.5,0-0.9-0.4-0.9-0.9c0-0.5,0.4-0.9,0.9-0.9
				C43.4,30.6,43.8,31,43.8,31.5"/>
			<path id="Fill-233" class="st0" d="M46.4,34.1c0,0.5-0.4,0.9-0.9,0.9c-0.5,0-0.9-0.4-0.9-0.9c0-0.5,0.4-0.9,0.9-0.9
				C46,33.2,46.4,33.6,46.4,34.1"/>
			<path id="Fill-234" class="st0" d="M33.3,36.7c0,0.5-0.4,0.9-0.9,0.9c-0.5,0-0.9-0.4-0.9-0.9c0-0.5,0.4-0.9,0.9-0.9
				C32.9,35.8,33.3,36.2,33.3,36.7"/>
			<path id="Fill-235" class="st0" d="M35.9,39.3c0,0.5-0.4,0.9-0.9,0.9c-0.5,0-0.9-0.4-0.9-0.9c0-0.5,0.4-0.9,0.9-0.9
				C35.5,38.4,35.9,38.8,35.9,39.3"/>
			<path id="Fill-236" class="st0" d="M41.2,39.3c0,0.5-0.4,0.9-0.9,0.9c-0.5,0-0.9-0.4-0.9-0.9c0-0.5,0.4-0.9,0.9-0.9
				C40.8,38.4,41.2,38.8,41.2,39.3"/>
			<path id="Fill-237" class="st0" d="M38.5,36.7c0,0.5-0.4,0.9-0.9,0.9c-0.5,0-0.9-0.4-0.9-0.9c0-0.5,0.4-0.9,0.9-0.9
				C38.2,35.8,38.5,36.2,38.5,36.7"/>
			<path id="Fill-238" class="st0" d="M43.8,36.7c0,0.5-0.4,0.9-0.9,0.9c-0.5,0-0.9-0.4-0.9-0.9c0-0.5,0.4-0.9,0.9-0.9
				C43.4,35.8,43.8,36.2,43.8,36.7"/>
			<path id="Fill-239" class="st0" d="M46.4,39.3c0,0.5-0.4,0.9-0.9,0.9c-0.5,0-0.9-0.4-0.9-0.9c0-0.5,0.4-0.9,0.9-0.9
				C46,38.4,46.4,38.8,46.4,39.3"/>
			<path id="Fill-240" class="st0" d="M33.3,41.9c0,0.5-0.4,0.9-0.9,0.9c-0.5,0-0.9-0.4-0.9-0.9c0-0.5,0.4-0.9,0.9-0.9
				C32.9,41,33.3,41.4,33.3,41.9"/>
			<path id="Fill-241" class="st0" d="M35.9,44.5c0,0.5-0.4,0.9-0.9,0.9c-0.5,0-0.9-0.4-0.9-0.9c0-0.5,0.4-0.9,0.9-0.9
				C35.5,43.7,35.9,44.1,35.9,44.5"/>
			<path id="Fill-242" class="st0" d="M41.2,44.5c0,0.5-0.4,0.9-0.9,0.9c-0.5,0-0.9-0.4-0.9-0.9c0-0.5,0.4-0.9,0.9-0.9
				C40.8,43.7,41.2,44.1,41.2,44.5"/>
			<path id="Fill-243" class="st0" d="M38.5,41.9c0,0.5-0.4,0.9-0.9,0.9c-0.5,0-0.9-0.4-0.9-0.9c0-0.5,0.4-0.9,0.9-0.9
				C38.2,41,38.5,41.4,38.5,41.9"/>
			<path id="Fill-244" class="st0" d="M43.8,41.9c0,0.5-0.4,0.9-0.9,0.9c-0.5,0-0.9-0.4-0.9-0.9c0-0.5,0.4-0.9,0.9-0.9
				C43.4,41,43.8,41.4,43.8,41.9"/>
			<path id="Fill-245" class="st0" d="M46.4,44.5c0,0.5-0.4,0.9-0.9,0.9c-0.5,0-0.9-0.4-0.9-0.9c0-0.5,0.4-0.9,0.9-0.9
				C46,43.7,46.4,44.1,46.4,44.5"/>
			<path id="Fill-246" class="st0" d="M41.2,49.8c0,0.5-0.4,0.9-0.9,0.9c-0.5,0-0.9-0.4-0.9-0.9c0-0.5,0.4-0.9,0.9-0.9
				C40.8,48.9,41.2,49.3,41.2,49.8"/>
			<path id="Fill-247" class="st0" d="M38.5,47.2c0,0.5-0.4,0.9-0.9,0.9c-0.5,0-0.9-0.4-0.9-0.9c0-0.5,0.4-0.9,0.9-0.9
				C38.2,46.3,38.5,46.7,38.5,47.2"/>
			<path id="Fill-248" class="st0" d="M43.8,47.2c0,0.5-0.4,0.9-0.9,0.9c-0.5,0-0.9-0.4-0.9-0.9c0-0.5,0.4-0.9,0.9-0.9
				C43.4,46.3,43.8,46.7,43.8,47.2"/>
			<path id="Fill-249" class="st0" d="M46.4,49.8c0,0.5-0.4,0.9-0.9,0.9c-0.5,0-0.9-0.4-0.9-0.9c0-0.5,0.4-0.9,0.9-0.9
				C46,48.9,46.4,49.3,46.4,49.8"/>
			<path id="Stroke-250" class="st0" d="M15.9,46.3c0-3.9,3.1-7,7-7"/>
			<path id="Stroke-251" class="st0" d="M18.5,35.8c0-1.4,1.2-2.6,2.6-2.6"/>
			<path id="Stroke-252" class="st0" d="M22,46.3c0-1.4,1.2-2.6,2.6-2.6"/>
			<path id="Stroke-253" class="st0" d="M14.1,35.8c0-1.4-1.2-2.6-2.6-2.6"/>
			<path id="Stroke-254" class="st0" d="M10.6,46.3c0-1.4-1.2-2.6-2.6-2.6"/>
			<path id="Stroke-255" class="st0" d="M12.4,41c0-1.4-1.2-2.6-2.6-2.6"/>
		</g>
	</g>
</g>
</svg>
