<?xml version="1.0" encoding="utf-8"?>
<!-- Generator: Adobe Illustrator 21.1.0, SVG Export Plug-In . SVG Version: 6.00 Build 0)  -->
<svg version="1.1" id="Layer_1" xmlns="http://www.w3.org/2000/svg" xmlns:xlink="http://www.w3.org/1999/xlink" x="0px" y="0px"
	 viewBox="0 0 52 52" style="enable-background:new 0 0 52 52;" xml:space="preserve">
<style type="text/css">
	.st0{fill:none;stroke:#DAD7CB;stroke-width:0.8679;}
</style>
<title>icons / earthsearch</title>
<desc>Created with Sketch.</desc>
<g id="Mask">
</g>
<g>
	<path class="st0" d="M50.6,17.6c0,2-0.1,4.2-1.5,2.4c-3.1-4-2.8,2-3.3,2.8c-2.1,3.2-6.1,0.9-7.7-1.6c-0.8-1.3,0.2-3.3-2.6-2
		c-2.5,1.1-0.7-0.4-2.2-1c-1.1-0.4-0.4,2.2-1.9,1.1c-1.2-0.9-0.3-2.9-2.9-2.3c-5.5,1.3,0-1.2-1.4-4.5c-1.2-2.9,3.8,1,5.1,0.5
		c1.3-0.4,1.6-2.4,0.7-3.4c-0.9-0.9-1.3,1.8-2.2,1.8c-0.1-2.8,2.4-5.2,4.2-3.4c1.8,1.9,4.8-3.8,2.4-5.4c-0.6-0.4-3.8,1.5-5,1.5
		c-3.6,0-5.2,4.9-9.5,3.2c-0.1-2.3,4-2.2,4.4-4.5c0.6-3.5-4.4,1.7-4.5,1.7c-0.1-0.4,0.5-1.5,0.6-2.2c2.3-1,4.9-1.6,7.7-1.6
		c-0.1,0-0.2,0-0.3,0c-8,0-14.9,4.7-18.2,11.5c0.4,0.4,0.5,0.8,0.5,2c-0.2,2.4,0.2,1.3,0,3.6c-0.2,2.2,0.8,2.2,0,3.6
		c-0.7,1.2-1.4,1.5-2.3,2.3c0.1,0.8,0.3,1.5,0.4,2.3c1.3-0.6,2.7-1,4.3-1c1.3,0,2.6,0.3,3.7,0.7l1.5-0.7l0.7,0.1l-1.1,0.4l1.9-0.5
		l2,1.4l2.6,0.8l2.5-0.1l3.7,2.8l1.2,2.1h5l-1,3.1l-2.4,2l-0.5,3.2c-1.6,0.4-3.3,0.6-5,0.6c-2.2,0-4.3-0.4-6.2-1
		c0,0.1-0.1,0.1-0.1,0.2c2.1,0.8,4.4,1.2,6.7,1.2c11.2,0,20.2-9.1,20.2-20.3C50.9,19.8,50.8,18.7,50.6,17.6z"/>
</g>
<g id="Symbols">
	<g id="icons-_x2F_-earthsearch">
		<g id="Group-2" transform="translate(-1.000000, -6.000000)">
			
				<g id="_x33_78-search-interaction-communication-essential-outline" transform="translate(15.465517, 49.925926) scale(-1, 1) translate(-15.465517, -49.925926) translate(0.965517, 34.925926)">
				<path id="Stroke-8" class="st0" d="M23.3,5.9c0,5.5-4.4,9.9-9.9,9.9s-9.9-4.4-9.9-9.9S8-4,13.5-4S23.3,0.4,23.3,5.9L23.3,5.9z"
					/>
				<path id="Stroke-9" class="st0" d="M20.7,14l7.7,8"/>
			</g>
		</g>
	</g>
</g>
</svg>
