<?xml version="1.0" encoding="utf-8"?>
<!-- Generator: Adobe Illustrator 21.1.0, SVG Export Plug-In . SVG Version: 6.00 Build 0)  -->
<svg version="1.1" id="Layer_1" xmlns="http://www.w3.org/2000/svg" xmlns:xlink="http://www.w3.org/1999/xlink" x="0px" y="0px"
	 viewBox="0 0 52 52" style="enable-background:new 0 0 52 52;" xml:space="preserve">
<style type="text/css">
	.st0{fill:none;stroke:#4D4F53;stroke-width:1.6991;stroke-opacity:0.1;}
</style>
<title>icons / idea</title>
<desc>Created with Sketch.</desc>
<g id="Symbols">
	<g id="icons-_x2F_-idea">
		<g id="_x32_22-bulb-construction-tool-work-building-outline" transform="translate(12.000000, 0.000000)">
			<polygon id="Stroke-3199" class="st0" points="7.4,37 7.4,47.2 21,47.2 21,40.4 21,37 			"/>
			<path id="Stroke-3200" class="st0" d="M15.5,50.6h-2.5c-0.8,0-1.6-0.4-2-1l-1.8-2.4h10.2l-1.8,2.4C17,50.2,16.3,50.6,15.5,50.6
				L15.5,50.6z"/>
			<path id="Stroke-3201" class="st0" d="M7.4,40.4h5.9"/>
			<path id="Stroke-3202" class="st0" d="M15,43.8H21"/>
			<path id="Stroke-3203" class="st0" d="M17.6,40.4H21"/>
			<path id="Stroke-3204" class="st0" d="M7.4,43.8h3.4"/>
			<path id="Stroke-3210" class="st0" d="M30.2,16c-0.8-7.6-7-13.8-14.6-14.6c-0.5-0.1-1-0.1-1.5-0.1c-0.5,0-1,0-1.5,0.1
				C5.1,2.3-1,8.4-1.8,16c-0.6,5.4,1.4,10.4,5,13.8c2,2,3.7,4.5,4.3,7.2H21c0.6-2.7,2.2-5.2,4.3-7.2C28.8,26.4,30.8,21.5,30.2,16
				L30.2,16z"/>
			<path id="Stroke-3226" class="st0" d="M16.7,37V20c0-1.4,1.1-2.5,2.5-2.5c1.4,0,2.5,1.1,2.5,2.5c0,1.4-1.1,2.5-2.5,2.5H9.1
				c-1.4,0-2.5-1.1-2.5-2.5c0-1.4,1.1-2.5,2.5-2.5s2.5,1.1,2.5,2.5v17"/>
		</g>
	</g>
</g>
</svg>
