<?xml version="1.0" encoding="utf-8"?>
<!-- Generator: Adobe Illustrator 21.1.0, SVG Export Plug-In . SVG Version: 6.00 Build 0)  -->
<svg version="1.1" id="Layer_1" xmlns="http://www.w3.org/2000/svg" xmlns:xlink="http://www.w3.org/1999/xlink" x="0px" y="0px"
	 viewBox="0 0 52 52" style="enable-background:new 0 0 52 52;" xml:space="preserve">
<style type="text/css">
	.st0{fill:#FFFFFF;}
</style>
<title>icons / search</title>
<desc>Created with Sketch.</desc>
<path class="st0" d="M50.5,48L37.7,34.8c3.2-3.6,5.2-8.4,5.2-13.6C42.9,9.2,33.3,0,22.1,0C10.5,0,0.9,9.2,0.9,20.8
	s9.2,20.8,20.8,20.8c4.8,0,8.8-1.6,12.4-4l13.2,13.6c0.4,0.4,1.2,0.8,1.6,0.8c0.4,0,1.2-0.4,1.6-0.8C51.3,50.4,51.3,49.2,50.5,48z
	 M5.7,20.8c0-9.2,7.2-16.4,16.4-16.4S38.5,12,38.5,20.8c0,9.2-7.2,16.4-16.4,16.4S5.7,30,5.7,20.8z"/>
</svg>
