<?xml version="1.0" encoding="utf-8"?>
<!-- Generator: Adobe Illustrator 21.1.0, SVG Export Plug-In . SVG Version: 6.00 Build 0)  -->
<svg version="1.1" id="Layer_1" xmlns="http://www.w3.org/2000/svg" xmlns:xlink="http://www.w3.org/1999/xlink" x="0px" y="0px"
	 viewBox="0 0 52 52" style="enable-background:new 0 0 52 52;" xml:space="preserve">
<style type="text/css">
	.st0{fill:none;stroke:#4D4F53;stroke-width:1.6617;stroke-opacity:0.1;}
</style>
<title>icons / sustainability</title>
<desc>Created with Sketch.</desc>
<g id="Symbols">
	<g id="icons-_x2F_-sustainability">
		<g id="sustainability_ico" transform="translate(16.000000, 0.000000)">
			<path id="Stroke-490" class="st0" d="M11.5,50.9c0-8.1-4.5-23.2-11.3-23.2C-4.6,41.5,2.2,50.9,11.5,50.9L11.5,50.9z"/>
			<path id="Stroke-491" class="st0" d="M11.5,50.9c0-8.1,4.5-23.2,11.3-23.2C27.6,41.5,20.8,50.9,11.5,50.9L11.5,50.9z"/>
			<path id="Stroke-494" class="st0" d="M24.1,15.9c0.1,0.7-1.2,8.9-10.9,11C12.9,16.8,22.8,16,24.1,15.9L24.1,15.9z"/>
			<path id="Stroke-495" class="st0" d="M10.7,19.2C-1.5,14.8,1,2.2,2,1C3,1.3,12.9,6.7,10.7,19.2L10.7,19.2L10.7,19.2z"/>
			<path id="Stroke-496" class="st0" d="M10.7,19.2c6.1,9.3-0.8,9.8,0.8,31.7"/>
			<path id="Stroke-497" class="st0" d="M13.2,26.8l5.3-5.4"/>
			<path id="Stroke-498" class="st0" d="M6.8,11.6l3.9,7.6"/>
		</g>
	</g>
</g>
</svg>
