<svg id="Layer_1" xmlns="http://www.w3.org/2000/svg" viewBox="0 0 52 52"><style>.st0{fill:none;stroke:#dad7cb;stroke-width:.8413}</style><title>icons / earth</title><g id="Symbols"><g id="icons-_x2F_-earth"><g id="_x31_9-earth-space-astronomy-outline" transform="translate(2)"><g id="_x31_9---Earth-_x28_space_x2C_-astronomy_x2C_-outline_x29_"><g id="Page-1"><g id="Icons"><g id="Earth"><path id="Path" class="st0" d="M49.3 25.9c0 13.9-11.3 25.2-25.2 25.2S-1.2 39.8-1.2 25.9 10.1.6 24.1.6s25.2 11.3 25.2 25.3z"/><path id="Path_1_" class="st0" d="M24.6.6c-3.5 0-6.8.7-9.9 2-.1.8-.8 2.2-.8 2.7.1 0 6.4-6.4 5.6-2.1-.4 2.8-5.6 2.8-5.4 5.6 5.4 2.1 7.3-4 11.9-4 1.5 0 5.5-2.4 6.2-1.9 3 2-.7 9.1-3 6.7-2.2-2.2-5.4.8-5.3 4.3 1.2.1 1.7-3.3 2.7-2.2 1.2 1.2.7 3.7-.9 4.3-1.6.6-7.9-4.3-6.4-.6 1.7 4.1-5.1 7.2 1.8 5.6 3.2-.8 2.2 1.7 3.7 2.9 1.8 1.4 1-1.9 2.3-1.4 1.9.7-.3 2.7 2.7 1.3 3.5-1.6 2.2.9 3.3 2.5 2 3.1 7 6 9.6 2 .6-1 .2-8.5 4.1-3.5 2.5 3.2 1.6-3.8 2-5.7C46 8.4 36.2.6 24.6.6z"/><path id="Path_2_" class="st0" d="M11.6 30.9l-2.7 1.3 3.6-1.2z"/><path id="Path_3_" class="st0" d="M7.6 32.3l.2-.1H8z"/><path id="Path_4_" class="st0" d="M26.9 37l-4.7-3.5-3.1.1-3.2-1-2.5-1.7-5.7 1.3-2.4 1.1-2.6 3.6.9 4.2c.3.3.5.7.8 1l4.9 2.3 3.3.4 2 4 .1.4c2.8 1.1 5.8 1.6 8.9 1.6 2.2 0 4.3-.3 6.3-.8l.7-4 3-2.4 1.3-3.9h-6.3L26.9 37z"/><path id="Path_5_" class="st0" d="M-1.2 29.5l.1-.1c1.1-1.1 2.1-1.3 3-3 .9-1.7-.2-1.7 0-4.5s-.2-1.5 0-4.5c.1-1.8-.3-2.3-1-2.8"/></g></g></g></g></g></g></g></svg>