<svg id="Layer_1" xmlns="http://www.w3.org/2000/svg" viewBox="0 0 52 52"><style>.st0{fill:none;stroke:#dad7cb;stroke-width:.8606}</style><title>icons / windmill</title><g id="Symbols"><g id="icons-_x2F_-windmill"><g id="_x35_8-windmill-farming-nature-garden-agriculture-outline" transform="translate(13)"><g id="_x35_8--Windmill--_x28_farming-_x2C_-nature_x2C_-garden_x2C_-agriculture_x2C_-outline_x29__1_"><g id="Page-1"><g id="Grooming-Outline"><g id="_x35_8--Windmill--_x28_farming-_x2C_-nature_x2C_-garden_x2C_-agriculture_x2C_-outline_x29_"><path id="Stroke-875" class="st0" d="M-1.4 49.3h28"/><path id="Stroke-876" class="st0" d="M15.9 12.8c0-1.9-1.6-3.5-3.5-3.5s-3.5 1.6-3.5 3.5 1.6 3.5 3.5 3.5 3.5-1.6 3.5-3.5z"/><path id="Stroke-877" class="st0" d="M11.5 15.7v8.8"/><path id="Stroke-878" class="st0" d="M11.5.2V9"/><path id="Stroke-879" class="st0" d="M8.7 11.4H-.1"/><path id="Stroke-880" class="st0" d="M23.7 11.4h-7"/><path id="Stroke-881" class="st0" d="M10 15.7l-6.2 6.2"/><path id="Stroke-882" class="st0" d="M21.6 4.1l-6.2 6.2"/><path id="Stroke-883" class="st0" d="M10 10.3L3.8 4.1"/><path id="Stroke-884" class="st0" d="M21.6 21.9l-6.2-6.2"/><path id="Stroke-885" class="st0" d="M23.1 12.8l7-3.5v7z"/><path id="Stroke-886" class="st0" d="M16.5 24.8H7.7L2.5 51h19.2z"/><path id="Stroke-887" class="st0" d="M7.7 24.8l11.6 14"/><path id="Stroke-888" class="st0" d="M2.5 51.2L19.3 39"/><path id="Stroke-889" class="st0" d="M16.6 24.8l-11.5 14"/><path id="Stroke-890" class="st0" d="M21.9 51.3L5.1 39"/></g></g></g></g></g></g></g></svg>