<svg id="Layer_1" xmlns="http://www.w3.org/2000/svg" viewBox="0 0 13 13"><style>.st0{fill:#fff}</style><title>nav / arrow copy 10</title><g id="Interactions"><g id="se_department-dropdown-grad_ui" transform="translate(-809 -24)"><g id="nav-_x2F_-chevron" transform="translate(805 17)"><g id="nav-_x2F_-arrow" transform="rotate(135 4.363 6.148)"><g id="_x31_53---Arrow-Top-Right-_x28_arrow_x2C_-direction_x2C_-orientation_x2C_-Flat_x29__1_"><g id="Page-1"><g id="Icons"><path class="st0" d="M7.7-5.8c.2.2.2.4.2.5v8.2c0 .4-.3.7-.7.8-.2 0-.4-.1-.5-.2-.2-.3-.3-.5-.3-.7v-7.4H-.9c-.2 0-.4-.1-.5-.2-.2-.2-.3-.3-.3-.6 0-.2.1-.4.2-.5.2-.1.4-.2.6-.2h8.1c.1 0 .2.1.3.1l.2.2c0-.1 0 0 0 0z" id="_x31_53---Arrow-Top-Right-_x28_arrow_x2C_-direction_x2C_-orientation_x2C_-Flat_x29_"/></g></g></g></g></g></g></g></svg>