<svg id="Layer_1" xmlns="http://www.w3.org/2000/svg" viewBox="0 0 52 52" role="img"><title>Complex Icon</title><style>.st0{fill:none;stroke:#dad7cb;stroke-width:.8784}</style><g id="Symbols"><g id="icons-_x2F_-complex"><g id="_x31_85-photos-interaction-communication-essential-outline" transform="translate(2)"><path id="Stroke-616" class="st0" d="M23.9 51.4c-4.3 0-7.9-3.6-7.9-7.9V8.4C16 4.1 19.6.5 23.9.5s7.9 3.6 7.9 7.9v35.1c0 4.4-3.5 7.9-7.9 7.9z"/><path id="Stroke-618" class="st0" d="M-1.5 25.9c0-4.3 3.6-7.9 7.9-7.9h35.1c4.3 0 7.9 3.6 7.9 7.9s-3.6 7.9-7.9 7.9H6.4c-4.4 0-7.9-3.5-7.9-7.9z"/><path id="Stroke-620" class="st0" d="M5.9 44c-3.1-3.1-3.1-8.1 0-11.2L30.8 7.9c3.1-3.1 8.1-3.1 11.2 0 3 3.1 3 8.1 0 11.2L17.1 44C14 47 9 47 5.9 44z"/><path id="Stroke-622" class="st0" d="M5.9 7.9c3.1-3 8.1-3 11.2 0L42 32.8c3 3 3 8.1 0 11.2s-8.1 3.1-11.2 0L5.9 19.1c-3-3.1-3-8.1 0-11.2z"/></g></g></g></svg>
