<svg id="Layer_1" xmlns="http://www.w3.org/2000/svg" viewBox="0 0 52 52"><style>.st0{fill:none;stroke:#4d4f53;stroke-width:2.0905;stroke-opacity:.1}</style><title>icons / compass</title><g id="Symbols"><g id="icons-_x2F_-compass"><g id="compass_ico" transform="translate(8 -7)"><path id="Stroke-68" class="st0" d="M18.1 13.5v3.2-3.2zm0 35.2v3.2-3.2zm19.2-16h-3.2 3.2zM2 32.7H-.1 2zm12.8-3.2l-3.2-3.2 3.2 3.2zm6.5 0l3.2-3.2-3.2 3.2zm-6.5 6.4l-3.2 3.2 3.2-3.2zm6.5 0l3.2 3.2-3.2-3.2z"/><path id="Stroke-69" class="st0" d="M21.2 29.5c-.1-2.2-1.9-8.6-3.1-8.6-1.2 0-3 6.4-3.1 8.7-2.2.1-8.6 1.9-8.6 3.1 0 1.2 6.5 3 8.7 3.1.1 2.2 1.9 8.6 3.1 8.6 1.2 0 3-6.5 3.1-8.6 2.2-.1 8.7-1.9 8.7-3.1-.2-1.2-6.6-3-8.8-3.2z"/><path id="Stroke-70" class="st0" d="M18 13.8V17v-3.2zM18 49v3.2V49zm19.2-16H34h3.2zM2 33h-3.2H2zm16 24.5C4.5 57.5-6.6 46.5-6.6 33S4.4 8.5 18 8.5s24.6 11 24.6 24.5S31.5 57.5 18 57.5zM1.3 23.4L4.1 25l-2.8-1.6zM31.9 41l2.8 1.6-2.8-1.6zm-4.3-24.6L26 19.1l1.6-2.7zM10 46.9l-1.1 1.8 1.1-1.8zM1.3 23.4L4.1 25l-2.8-1.6zM31.9 41l2.8 1.6-2.8-1.6zm-4.3-24.6L26 19.1l1.6-2.7zM10 46.9l-1.6 2.8 1.6-2.8zM8.4 16.4l1.6 2.8-1.6-2.8zM26 46.9l1.6 2.8-1.6-2.8zm8.7-23.5L31.9 25l2.8-1.6zM4.1 41l-1.9 1.1L4.1 41zm4.3-24.6l1.6 2.8-1.6-2.8zM26 46.9l1.6 2.8-1.6-2.8zm8.7-23.5L31.9 25l2.8-1.6zM4.1 41l-2.8 1.6L4.1 41z"/></g></g></g></svg>