<svg id="Layer_1" xmlns="http://www.w3.org/2000/svg" viewBox="0 0 52 52"><style>.st0{fill:none;stroke:#4d4f53;stroke-width:1.7438;stroke-opacity:.1}</style><title>icons / earth systems</title><g id="Symbols"><g id="icons-_x2F_-earth-systems"><g id="_x31_1-landscape-outdoor-camping-travel-outline" transform="translate(3 1)"><path id="Stroke-1" class="st0" d="M35.9 50.6H-2.4L16.8 14z"/><path id="Stroke-3" class="st0" d="M13.3 28l1.7-1.8 1.8 1.8 1.7-1.8 1.7 1.8 2.5-2.5L16.8 14l-6 11.5z"/><path id="Stroke-4" class="st0" d="M.2 21.9l1.7-1.8 1.8 1.8 2.6-1.8L8 21.9l1.8-2.7L3.7 7l-6.1 12.2z"/><path id="Stroke-189" class="st0" d="M3.7 7l-6.1 12.2v31.4L12 23z"/><path id="Stroke-190" class="st0" d="M45.5 22.7l-4.3-3.5L33.3 7l-7 9.6-6.8 2.6 16.4 31.4h12.2V28z"/><path id="Stroke-191" class="st0" d="M-.7 1.8h2.6"/><path id="Fill-192" class="st0" d="M7.2 1.8c0 .5-.4.9-.9.9s-.9-.4-.9-.9.4-.9.9-.9.9.4.9.9"/><path id="Stroke-193" class="st0" d="M47.3 7.9h-2.6"/><path id="Fill-194" class="st0" d="M39.4 7.9c0-.5.4-.9.9-.9s.9.4.9.9-.4.9-.9.9-.9-.4-.9-.9"/><path id="Stroke-195" class="st0" d="M23.7 3.7v-.2c0-1.4-1.2-2.6-2.6-2.6-1.4 0-2.6 1.2-2.6 2.6h-.9c-1.4 0-2.6 1.2-2.6 2.6s1.2 2.6 2.6 2.6h5.2c1.4 0 2.6-1.2 2.6-2.6.1-1.1-.7-2-1.7-2.4z"/><path id="Fill-202" class="st0" d="M30.7 13.1c0 .5-.4.9-.9.9s-.9-.4-.9-.9.4-.9.9-.9c.5.1.9.5.9.9"/><path id="Fill-203" class="st0" d="M33.3 10.5c0 .5-.4.9-.9.9s-.9-.4-.9-.9.4-.9.9-.9c.5.1.9.4.9.9"/><path id="Fill-204" class="st0" d="M35.9 13.1c0 .5-.4.9-.9.9s-.9-.4-.9-.9.4-.9.9-.9c.5.1.9.5.9.9"/><path id="Fill-205" class="st0" d="M25.5 18.4c0 .5-.4.9-.9.9s-.9-.4-.9-.9.4-.9.9-.9.9.4.9.9"/><path id="Fill-206" class="st0" d="M30.7 18.4c0 .5-.4.9-.9.9s-.9-.4-.9-.9.4-.9.9-.9.9.4.9.9"/><path id="Fill-207" class="st0" d="M33.3 15.8c0 .5-.4.9-.9.9s-.9-.4-.9-.9.4-.9.9-.9.9.4.9.9"/><path id="Fill-208" class="st0" d="M35.9 18.4c0 .5-.4.9-.9.9s-.9-.4-.9-.9.4-.9.9-.9.9.4.9.9"/><path id="Fill-209" class="st0" d="M38.5 15.8c0 .5-.4.9-.9.9s-.9-.4-.9-.9.4-.9.9-.9c.6 0 .9.4.9.9"/><path id="Fill-210" class="st0" d="M22.9 21c0 .5-.4.9-.9.9s-.9-.4-.9-.9.4-.9.9-.9.9.4.9.9"/><path id="Fill-211" class="st0" d="M25.5 23.6c0 .5-.4.9-.9.9s-.9-.4-.9-.9.4-.9.9-.9.9.4.9.9"/><path id="Fill-212" class="st0" d="M30.7 23.6c0 .5-.4.9-.9.9s-.9-.4-.9-.9.4-.9.9-.9.9.4.9.9"/><path id="Fill-213" class="st0" d="M28.1 21c0 .5-.4.9-.9.9s-.9-.4-.9-.9.4-.9.9-.9.9.4.9.9"/><path id="Fill-214" class="st0" d="M33.3 21c0 .5-.4.9-.9.9s-.9-.4-.9-.9.4-.9.9-.9.9.4.9.9"/><path id="Fill-215" class="st0" d="M35.9 23.6c0 .5-.4.9-.9.9s-.9-.4-.9-.9.4-.9.9-.9.9.4.9.9"/><path id="Fill-216" class="st0" d="M41.2 23.6c0 .5-.4.9-.9.9s-.9-.4-.9-.9.4-.9.9-.9.9.4.9.9"/><path id="Fill-217" class="st0" d="M38.5 21c0 .5-.4.9-.9.9s-.9-.4-.9-.9.4-.9.9-.9c.6 0 .9.4.9.9"/><path id="Fill-218" class="st0" d="M30.7 28.8c0 .5-.4.9-.9.9s-.9-.4-.9-.9.4-.9.9-.9c.5.1.9.5.9.9"/><path id="Fill-219" class="st0" d="M28.1 26.2c0 .5-.4.9-.9.9s-.9-.4-.9-.9.4-.9.9-.9c.5.1.9.4.9.9"/><path id="Fill-220" class="st0" d="M33.3 26.2c0 .5-.4.9-.9.9s-.9-.4-.9-.9.4-.9.9-.9c.5.1.9.4.9.9"/><path id="Fill-221" class="st0" d="M35.9 28.8c0 .5-.4.9-.9.9s-.9-.4-.9-.9.4-.9.9-.9c.5.1.9.5.9.9"/><path id="Fill-222" class="st0" d="M41.2 28.8c0 .5-.4.9-.9.9s-.9-.4-.9-.9.4-.9.9-.9c.5.1.9.5.9.9"/><path id="Fill-223" class="st0" d="M38.5 26.2c0 .5-.4.9-.9.9s-.9-.4-.9-.9.4-.9.9-.9c.6.1.9.4.9.9"/><path id="Fill-224" class="st0" d="M43.8 26.2c0 .5-.4.9-.9.9s-.9-.4-.9-.9.4-.9.9-.9c.5.1.9.4.9.9"/><path id="Fill-225" class="st0" d="M46.4 28.8c0 .5-.4.9-.9.9s-.9-.4-.9-.9.4-.9.9-.9c.5.1.9.5.9.9"/><path id="Fill-226" class="st0" d="M30.7 34.1c0 .5-.4.9-.9.9s-.9-.4-.9-.9.4-.9.9-.9.9.4.9.9"/><path id="Fill-227" class="st0" d="M28.1 31.5c0 .5-.4.9-.9.9s-.9-.4-.9-.9.4-.9.9-.9.9.4.9.9"/><path id="Fill-228" class="st0" d="M33.3 31.5c0 .5-.4.9-.9.9s-.9-.4-.9-.9.4-.9.9-.9.9.4.9.9"/><path id="Fill-229" class="st0" d="M35.9 34.1c0 .5-.4.9-.9.9s-.9-.4-.9-.9.4-.9.9-.9.9.4.9.9"/><path id="Fill-230" class="st0" d="M41.2 34.1c0 .5-.4.9-.9.9s-.9-.4-.9-.9.4-.9.9-.9.9.4.9.9"/><path id="Fill-231" class="st0" d="M38.5 31.5c0 .5-.4.9-.9.9s-.9-.4-.9-.9.4-.9.9-.9c.6 0 .9.4.9.9"/><path id="Fill-232" class="st0" d="M43.8 31.5c0 .5-.4.9-.9.9s-.9-.4-.9-.9.4-.9.9-.9.9.4.9.9"/><path id="Fill-233" class="st0" d="M46.4 34.1c0 .5-.4.9-.9.9s-.9-.4-.9-.9.4-.9.9-.9.9.4.9.9"/><path id="Fill-234" class="st0" d="M33.3 36.7c0 .5-.4.9-.9.9s-.9-.4-.9-.9.4-.9.9-.9.9.4.9.9"/><path id="Fill-235" class="st0" d="M35.9 39.3c0 .5-.4.9-.9.9s-.9-.4-.9-.9.4-.9.9-.9.9.4.9.9"/><path id="Fill-236" class="st0" d="M41.2 39.3c0 .5-.4.9-.9.9s-.9-.4-.9-.9.4-.9.9-.9.9.4.9.9"/><path id="Fill-237" class="st0" d="M38.5 36.7c0 .5-.4.9-.9.9s-.9-.4-.9-.9.4-.9.9-.9c.6 0 .9.4.9.9"/><path id="Fill-238" class="st0" d="M43.8 36.7c0 .5-.4.9-.9.9s-.9-.4-.9-.9.4-.9.9-.9.9.4.9.9"/><path id="Fill-239" class="st0" d="M46.4 39.3c0 .5-.4.9-.9.9s-.9-.4-.9-.9.4-.9.9-.9.9.4.9.9"/><path id="Fill-240" class="st0" d="M33.3 41.9c0 .5-.4.9-.9.9s-.9-.4-.9-.9.4-.9.9-.9.9.4.9.9"/><path id="Fill-241" class="st0" d="M35.9 44.5c0 .5-.4.9-.9.9s-.9-.4-.9-.9.4-.9.9-.9c.5.1.9.5.9.9"/><path id="Fill-242" class="st0" d="M41.2 44.5c0 .5-.4.9-.9.9s-.9-.4-.9-.9.4-.9.9-.9c.5.1.9.5.9.9"/><path id="Fill-243" class="st0" d="M38.5 41.9c0 .5-.4.9-.9.9s-.9-.4-.9-.9.4-.9.9-.9c.6 0 .9.4.9.9"/><path id="Fill-244" class="st0" d="M43.8 41.9c0 .5-.4.9-.9.9s-.9-.4-.9-.9.4-.9.9-.9.9.4.9.9"/><path id="Fill-245" class="st0" d="M46.4 44.5c0 .5-.4.9-.9.9s-.9-.4-.9-.9.4-.9.9-.9c.5.1.9.5.9.9"/><path id="Fill-246" class="st0" d="M41.2 49.8c0 .5-.4.9-.9.9s-.9-.4-.9-.9.4-.9.9-.9.9.4.9.9"/><path id="Fill-247" class="st0" d="M38.5 47.2c0 .5-.4.9-.9.9s-.9-.4-.9-.9.4-.9.9-.9c.6 0 .9.4.9.9"/><path id="Fill-248" class="st0" d="M43.8 47.2c0 .5-.4.9-.9.9s-.9-.4-.9-.9.4-.9.9-.9.9.4.9.9"/><path id="Fill-249" class="st0" d="M46.4 49.8c0 .5-.4.9-.9.9s-.9-.4-.9-.9.4-.9.9-.9.9.4.9.9"/><path id="Stroke-250" class="st0" d="M15.9 46.3c0-3.9 3.1-7 7-7"/><path id="Stroke-251" class="st0" d="M18.5 35.8c0-1.4 1.2-2.6 2.6-2.6"/><path id="Stroke-252" class="st0" d="M22 46.3c0-1.4 1.2-2.6 2.6-2.6"/><path id="Stroke-253" class="st0" d="M14.1 35.8c0-1.4-1.2-2.6-2.6-2.6"/><path id="Stroke-254" class="st0" d="M10.6 46.3c0-1.4-1.2-2.6-2.6-2.6"/><path id="Stroke-255" class="st0" d="M12.4 41c0-1.4-1.2-2.6-2.6-2.6"/></g></g></g></svg>