<svg id="Layer_1" xmlns="http://www.w3.org/2000/svg" viewBox="0 0 52 52"><style>.st0,.st1{fill:none;stroke:#dad7cb;stroke-width:.8679}.st1{fill:#fff}</style><title>icons / earthsearch</title><g id="Symbols"><g id="icons-_x2F_-earthsearch"><g id="Group-2" transform="translate(-1 -6)"><g id="_x31_9-earth-space-astronomy-outline" transform="translate(12)"><g transform="translate(1.448 9)" id="_x31_9---Earth-_x28_space_x2C_-astronomy_x2C_-outline_x29_"><g id="Page-1"><g id="Icons"><g id="Earth"><path id="Path" class="st0" d="M39 19.7C39 30.9 30 40 18.8 40S-1.4 30.8-1.4 19.7 7.6-.6 18.8-.6 39 8.5 39 19.7z"/><path id="Path_3_" class="st0" d="M5.7 24.8h.1l.1-.1z"/><path id="Path_4_" class="st0" d="M21.1 28.6l-3.7-2.8-2.5.1-2.6-.8-2-1.4-4.6 1.1-1.9.9-2.1 2.8.7 3.3c.2.3.4.5.7.8L7 34.4l2.6.4 1.6 3.2v.3c2.2.8 4.6 1.3 7.2 1.3 1.7 0 3.4-.2 5-.6l.5-3.2 2.4-2 1-3.1h-5l-1.2-2.1z"/><path id="Path_2_" class="st0" d="M-1.3 22.5c.9-.9 1.7-1.1 2.4-2.4.8-1.4-.2-1.4 0-3.6.2-2.3-.2-1.2 0-3.6.1-1.5.3-1.8-.3-2.3 0 0-2.9 5-2.1 11.9z"/></g></g></g></g></g><g id="_x33_78-search-interaction-communication-essential-outline" transform="matrix(-1 0 0 1 29.966 34.926)"><path id="Stroke-8" class="st1" d="M23.3 5.9c0 5.5-4.4 9.9-9.9 9.9s-9.9-4.4-9.9-9.9S8-4 13.5-4s9.8 4.4 9.8 9.9z"/><path id="Stroke-9" class="st0" d="M20.7 14l7.7 8"/></g></g></g><path id="Path_1_" class="st0" d="M31.1 2.4c-2.8 0-5.5.6-7.9 1.6-.1.7-.7 1.8-.6 2.2.1 0 5.1-5.2 4.5-1.7-.4 2.3-4.5 2.2-4.4 4.5 4.3 1.7 5.9-3.2 9.5-3.2 1.2 0 4.4-1.9 5-1.5 2.4 1.6-.6 7.3-2.4 5.4-1.8-1.8-4.3.6-4.2 3.4.9 0 1.3-2.7 2.2-1.8.9 1 .6 3-.7 3.4-1.3.5-6.3-3.4-5.1-.5 1.4 3.3-4.1 5.8 1.4 4.5 2.6-.6 1.7 1.4 2.9 2.3 1.5 1.1.8-1.5 1.9-1.1 1.5.6-.3 2.1 2.2 1 2.8-1.3 1.8.7 2.6 2 1.6 2.5 5.6 4.8 7.7 1.6.5-.8.2-6.8 3.3-2.8 2 2.6 1.3-3.1 1.6-4.5C48.2 8.7 40.3 2.4 31.1 2.4"/></g></svg>