<svg id="Layer_1" xmlns="http://www.w3.org/2000/svg" viewBox="0 0 52 52"><style>.st0{fill:none;stroke:#dad7cb;stroke-width:.8679}</style><title>icons / earthsearch</title><path class="st0" d="M50.6 17.6c0 2-.1 4.2-1.5 2.4-3.1-4-2.8 2-3.3 2.8-2.1 3.2-6.1.9-7.7-1.6-.8-1.3.2-3.3-2.6-2-2.5 1.1-.7-.4-2.2-1-1.1-.4-.4 2.2-1.9 1.1-1.2-.9-.3-2.9-2.9-2.3-5.5 1.3 0-1.2-1.4-4.5-1.2-2.9 3.8 1 5.1.5 1.3-.4 1.6-2.4.7-3.4-.9-.9-1.3 1.8-2.2 1.8-.1-2.8 2.4-5.2 4.2-3.4 1.8 1.9 4.8-3.8 2.4-5.4-.6-.4-3.8 1.5-5 1.5-3.6 0-5.2 4.9-9.5 3.2-.1-2.3 4-2.2 4.4-4.5.6-3.5-4.4 1.7-4.5 1.7-.1-.4.5-1.5.6-2.2 2.3-1 4.9-1.6 7.7-1.6h-.3c-8 0-14.9 4.7-18.2 11.5.4.4.5.8.5 2-.2 2.4.2 1.3 0 3.6-.2 2.2.8 2.2 0 3.6-.7 1.2-1.4 1.5-2.3 2.3.1.8.3 1.5.4 2.3 1.3-.6 2.7-1 4.3-1 1.3 0 2.6.3 3.7.7l1.5-.7.7.1-1.1.4 1.9-.5 2 1.4 2.6.8 2.5-.1 3.7 2.8 1.2 2.1h5l-1 3.1-2.4 2-.5 3.2c-1.6.4-3.3.6-5 .6-2.2 0-4.3-.4-6.2-1 0 .1-.1.1-.1.2 2.1.8 4.4 1.2 6.7 1.2 11.2 0 20.2-9.1 20.2-20.3.1-1.2 0-2.3-.2-3.4z"/><g id="Symbols"><g id="icons-_x2F_-earthsearch"><g id="Group-2" transform="translate(-1 -6)"><g id="_x33_78-search-interaction-communication-essential-outline" transform="matrix(-1 0 0 1 29.966 34.926)"><path id="Stroke-8" class="st0" d="M23.3 5.9c0 5.5-4.4 9.9-9.9 9.9s-9.9-4.4-9.9-9.9S8-4 13.5-4s9.8 4.4 9.8 9.9z"/><path id="Stroke-9" class="st0" d="M20.7 14l7.7 8"/></g></g></g></g></svg>