<svg id="Layer_1" xmlns="http://www.w3.org/2000/svg" viewBox="0 0 52 52"><style>.st0{fill:none;stroke:#4d4f53;stroke-width:1.6991;stroke-opacity:.1}</style><title>icons / idea</title><g id="Symbols"><g id="icons-_x2F_-idea"><g id="_x32_22-bulb-construction-tool-work-building-outline" transform="translate(12)"><path id="Stroke-3199" class="st0" d="M7.4 37v10.2H21V37z"/><path id="Stroke-3200" class="st0" d="M15.5 50.6H13c-.8 0-1.6-.4-2-1l-1.8-2.4h10.2l-1.8 2.4c-.6.6-1.3 1-2.1 1z"/><path id="Stroke-3201" class="st0" d="M7.4 40.4h5.9"/><path id="Stroke-3202" class="st0" d="M15 43.8h6"/><path id="Stroke-3203" class="st0" d="M17.6 40.4H21"/><path id="Stroke-3204" class="st0" d="M7.4 43.8h3.4"/><path id="Stroke-3210" class="st0" d="M30.2 16c-.8-7.6-7-13.8-14.6-14.6-.5-.1-1-.1-1.5-.1s-1 0-1.5.1C5.1 2.3-1 8.4-1.8 16c-.6 5.4 1.4 10.4 5 13.8 2 2 3.7 4.5 4.3 7.2H21c.6-2.7 2.2-5.2 4.3-7.2 3.5-3.4 5.5-8.3 4.9-13.8z"/><path id="Stroke-3226" class="st0" d="M16.7 37V20c0-1.4 1.1-2.5 2.5-2.5s2.5 1.1 2.5 2.5-1.1 2.5-2.5 2.5H9.1c-1.4 0-2.5-1.1-2.5-2.5s1.1-2.5 2.5-2.5 2.5 1.1 2.5 2.5v17"/></g></g></g></svg>