<svg id="Layer_1" xmlns="http://www.w3.org/2000/svg" viewBox="0 0 52 52"><style>.st0{fill:none;stroke:#4d4f53;stroke-width:1.6617;stroke-opacity:.1}</style><title>icons / sustainability</title><g id="Symbols"><g id="icons-_x2F_-sustainability"><g id="sustainability_ico" transform="translate(16)"><path id="Stroke-490" class="st0" d="M11.5 50.9C11.5 42.8 7 27.7.2 27.7c-4.8 13.8 2 23.2 11.3 23.2z"/><path id="Stroke-491" class="st0" d="M11.5 50.9c0-8.1 4.5-23.2 11.3-23.2 4.8 13.8-2 23.2-11.3 23.2z"/><path id="Stroke-494" class="st0" d="M24.1 15.9c.1.7-1.2 8.9-10.9 11-.3-10.1 9.6-10.9 10.9-11z"/><path id="Stroke-495" class="st0" d="M10.7 19.2C-1.5 14.8 1 2.2 2 1c1 .3 10.9 5.7 8.7 18.2z"/><path id="Stroke-496" class="st0" d="M10.7 19.2c6.1 9.3-.8 9.8.8 31.7"/><path id="Stroke-497" class="st0" d="M13.2 26.8l5.3-5.4"/><path id="Stroke-498" class="st0" d="M6.8 11.6l3.9 7.6"/></g></g></g></svg>